<svg xmlns="http://www.w3.org/2000/svg" viewBox="0 0 500 500"><g id="freepik--Shadow--inject-2"><ellipse id="freepik--path--inject-2" cx="245.18" cy="412.39" rx="193.89" ry="11.32" style="fill:#f5f5f5"></ellipse></g><g id="freepik--Device--inject-2"><path d="M287.81,405.43H193.42a10.66,10.66,0,0,1-10.79-11.82l20.74-237a13.16,13.16,0,0,1,12.86-11.83h94.39a10.66,10.66,0,0,1,10.79,11.83l-20.74,237A13.16,13.16,0,0,1,287.81,405.43Z" style="fill:#22C55E;opacity:0.30000000000000004"></path><path d="M310.62,144.74H216.23a13.16,13.16,0,0,0-12.86,11.83l-20.74,237a10.66,10.66,0,0,0,10.79,11.82h94.39a13.16,13.16,0,0,0,12.86-11.82l20.74-237A10.66,10.66,0,0,0,310.62,144.74Zm-15.2,248.87a7.32,7.32,0,0,1-7.15,6.57H193.88a5.93,5.93,0,0,1-6-6.57l20.74-237a7.32,7.32,0,0,1,7.15-6.58h94.39a5.93,5.93,0,0,1,6,6.58Z" style="fill:#22C55E"></path><path d="M310.62,144.74H216.23a13.16,13.16,0,0,0-12.86,11.83l-20.74,237a10.66,10.66,0,0,0,10.79,11.82h94.39a13.16,13.16,0,0,0,12.86-11.82l20.74-237A10.66,10.66,0,0,0,310.62,144.74Zm-15.2,248.87a7.32,7.32,0,0,1-7.15,6.57H193.88a5.93,5.93,0,0,1-6-6.57l20.74-237a7.32,7.32,0,0,1,7.15-6.58h94.39a5.93,5.93,0,0,1,6,6.58Z" style="fill:#fff;opacity:0.6000000000000001"></path><path d="M254.79,390.79h-26a1.62,1.62,0,0,0-1.58,1.46,1.31,1.31,0,0,0,1.33,1.45h26a1.62,1.62,0,0,0,1.59-1.45A1.32,1.32,0,0,0,254.79,390.79Z" style="fill:#fff"></path><path d="M254.15,255H226.63a6.22,6.22,0,0,1-6.3-6.9l2.41-27.53a7.68,7.68,0,0,1,7.5-6.9h27.53a6.23,6.23,0,0,1,6.3,6.9l-2.41,27.53A7.68,7.68,0,0,1,254.15,255Z" style="opacity:0.1"></path><path d="M251.15,252H223.63a6.22,6.22,0,0,1-6.3-6.9l2.41-27.53a7.68,7.68,0,0,1,7.5-6.9h27.53a6.23,6.23,0,0,1,6.3,6.9l-2.41,27.53A7.68,7.68,0,0,1,251.15,252Z" style="fill:#22C55E"></path><path d="M243.82,228.82c.47-5.34-4-9.66-10.1-9.66s-11.32,4.32-11.78,9.66c-.37,4.21,2.38,7.79,6.53,9.1a5.92,5.92,0,0,1-2.62,2.59,3.68,3.68,0,0,0,.63.31,5.07,5.07,0,0,0,6-2.37C238.32,238.25,243.37,234,243.82,228.82Z" style="fill:#fff"></path><path d="M256.49,233.44c.39-4.4-3.34-8-8.33-8a10.58,10.58,0,0,0-2.6.33,10.42,10.42,0,0,1,.19,3,12.44,12.44,0,0,1-6,9.29,8.46,8.46,0,0,0,6.38,3.27,3.26,3.26,0,0,0,4.22,1.89,4.83,4.83,0,0,0,.52-.23,3.58,3.58,0,0,1-1.61-1.94C253.13,240.15,256.17,237.09,256.49,233.44Z" style="fill:#fff"></path><path d="M241.53,340.2H221.06a4.63,4.63,0,0,1-4.69-5.13l1.79-20.47a5.72,5.72,0,0,1,5.59-5.14h20.47a4.63,4.63,0,0,1,4.69,5.14l-1.79,20.47A5.71,5.71,0,0,1,241.53,340.2Z" style="opacity:0.1"></path><path d="M271.57,300.36H246a5.78,5.78,0,0,1-5.85-6.42l2.23-25.59a7.15,7.15,0,0,1,7-6.42h25.6a5.79,5.79,0,0,1,5.85,6.42l-2.23,25.59A7.15,7.15,0,0,1,271.57,300.36Z" style="opacity:0.1"></path><path d="M268.57,297.36H243a5.78,5.78,0,0,1-5.85-6.42l2.23-25.59a7.15,7.15,0,0,1,7-6.42h25.6a5.79,5.79,0,0,1,5.85,6.42l-2.23,25.59A7.15,7.15,0,0,1,268.57,297.36Z" style="fill:#22C55E"></path><path d="M238.53,337.2H218.06a4.63,4.63,0,0,1-4.69-5.13l1.79-20.47a5.72,5.72,0,0,1,5.59-5.14h20.47a4.63,4.63,0,0,1,4.69,5.14l-1.79,20.47A5.71,5.71,0,0,1,238.53,337.2Z" style="fill:#22C55E"></path><path d="M270.25,267.59H246.5a3,3,0,0,0-3,2.73L242.17,286a2.46,2.46,0,0,0,2.49,2.72H268.4a3,3,0,0,0,3-2.72l1.37-15.66A2.46,2.46,0,0,0,270.25,267.59Zm-18.19,10.54-7.95,7.31,1.28-14.62Zm-5.22-8.65h22.73l-11.49,10.57a1.12,1.12,0,0,1-1.59,0Zm6.44,10,1.75,1.92a2.76,2.76,0,0,0,2.06.88,3.27,3.27,0,0,0,2.21-.88l2.09-1.92,6.7,7.34H245.3Zm9.56-1.34,8-7.31-1.28,14.62Z" style="fill:#fff"></path><polygon points="220.25 316.32 226.25 318.76 232.85 314.24 227.89 320.11 231.53 325.25 237.3 310.93 220.25 316.32" style="fill:#fff"></polygon><polygon points="225.84 320.12 228.54 323.42 225.66 323.42 225.84 320.12" style="fill:#fff"></polygon><path d="M223.45,324.43l-.63-.4a7.58,7.58,0,0,1,.61-.85l.57.49A6.86,6.86,0,0,0,223.45,324.43Z" style="fill:#fff"></path><path d="M223.15,329.36a2.72,2.72,0,0,1-1.29-1.6l.72-.2a2,2,0,0,0,1,1.15Zm-.63-2.58-.75-.06a5.36,5.36,0,0,1,.57-1.87l.68.34A4.52,4.52,0,0,0,222.52,326.78Z" style="fill:#fff"></path><path d="M238.27,332l-.74-.13a2.74,2.74,0,0,0,.05-.55,1.3,1.3,0,0,0-.27-.89l.58-.48a2.12,2.12,0,0,1,.44,1.37A4.27,4.27,0,0,1,238.27,332Zm-10.63-1.73-.78,0,0-.75a17.86,17.86,0,0,0,1.79,0l0,.75Zm2-.08,0-.75c.61,0,1.22-.1,1.81-.16l.07.75Zm-3.71,0-.31,0a8.68,8.68,0,0,1-1.55-.35l.24-.71a7.35,7.35,0,0,0,1.41.32l.29,0Zm10.8-.15a5,5,0,0,0-1.66-.24V329a5.6,5.6,0,0,1,1.93.29Zm-4.35-.09-.07-.75c.64-.06,1.26-.11,1.83-.14l0,.75C233.61,329.81,233,329.86,232.37,329.92Z" style="fill:#fff"></path><path d="M237.65,333.9l-.69-.3c.14-.32.26-.63.35-.9l.71.23C237.92,333.23,237.8,333.55,237.65,333.9Z" style="fill:#fff"></path><path d="M265.4,208.07h-23a5.21,5.21,0,0,1-5.27-5.78l2-23a6.43,6.43,0,0,1,6.28-5.78h23a5.21,5.21,0,0,1,5.27,5.78l-2,23A6.43,6.43,0,0,1,265.4,208.07Z" style="opacity:0.1"></path><path d="M262.4,205.07h-23a5.21,5.21,0,0,1-5.27-5.78l2-23a6.43,6.43,0,0,1,6.28-5.78h23a5.21,5.21,0,0,1,5.27,5.78l-2,23A6.43,6.43,0,0,1,262.4,205.07Z" style="fill:#22C55E"></path><path d="M263.63,192.47a17.12,17.12,0,0,0-14.91-16.34,5.68,5.68,0,0,0-7,1.62c-2,2.43-.22,4,2,5.74s4.21,3.07,6.18.64a5.8,5.8,0,0,0,1.31-3.13,13.43,13.43,0,0,1,7.77,8.52,5.77,5.77,0,0,0-3.22,1c-2.59,1.76-1.45,3.81.1,6.24s2.93,4.31,5.51,2.54A5.72,5.72,0,0,0,263.63,192.47Z" style="fill:#fff"></path><path d="M254,140.76H269.7c.78,0,.88-1.2.11-1.2H254.13c-.77,0-.88,1.2-.11,1.2Z" style="fill:#22C55E"></path><path d="M275.45,140.76H280c.78,0,.88-1.2.11-1.2h-4.51c-.77,0-.88,1.2-.1,1.2Z" style="fill:#22C55E"></path><g style="opacity:0.30000000000000004"><path d="M254,140.76H269.7c.78,0,.88-1.2.11-1.2H254.13c-.77,0-.88,1.2-.11,1.2Z" style="fill:#fff"></path></g><g style="opacity:0.30000000000000004"><path d="M275.45,140.76H280c.78,0,.88-1.2.11-1.2h-4.51c-.77,0-.88,1.2-.1,1.2Z" style="fill:#fff"></path></g><path d="M305.7,262.07l-1.38,15.68a.6.6,0,0,0,1.2.1q.68-7.83,1.37-15.68a.6.6,0,0,0-1.19-.1Z" style="fill:#22C55E"></path><path d="M303.82,283.49l-.39,4.51a.6.6,0,0,0,1.19.1l.39-4.5a.6.6,0,0,0-1.19-.11Z" style="fill:#22C55E"></path><g style="opacity:0.30000000000000004"><path d="M305.7,262.07l-1.38,15.68a.6.6,0,0,0,1.2.1q.68-7.83,1.37-15.68a.6.6,0,0,0-1.19-.1Z" style="fill:#fff"></path></g><g style="opacity:0.30000000000000004"><path d="M303.82,283.49l-.39,4.51a.6.6,0,0,0,1.19.1l.39-4.5a.6.6,0,0,0-1.19-.11Z" style="fill:#fff"></path></g></g></svg>