<svg xmlns="http://www.w3.org/2000/svg" viewBox="0 0 500 500"><g id="freepik--background-complete--inject-45"><rect y="382.4" width="500" height="0.25" style="fill:#e6e6e6"></rect><rect x="385.39" y="394.47" width="34.4" height="0.25" style="fill:#e6e6e6"></rect><rect x="255.61" y="394.93" width="10.28" height="0.25" style="fill:#e6e6e6"></rect><rect x="355.58" y="390.91" width="19.36" height="0.25" style="fill:#e6e6e6"></rect><rect x="72.44" y="391.5" width="25.68" height="0.25" style="fill:#e6e6e6"></rect><rect x="53.9" y="395.05" width="17.54" height="0.25" style="fill:#e6e6e6"></rect><rect x="134.44" y="388.97" width="93.68" height="0.25" style="fill:#e6e6e6"></rect><path d="M237,337.8H43.91a5.71,5.71,0,0,1-5.7-5.71V60.66A5.71,5.71,0,0,1,43.91,55H237a5.71,5.71,0,0,1,5.71,5.71V332.09A5.71,5.71,0,0,1,237,337.8ZM43.91,55.2a5.46,5.46,0,0,0-5.45,5.46V332.09a5.46,5.46,0,0,0,5.45,5.46H237a5.47,5.47,0,0,0,5.46-5.46V60.66A5.47,5.47,0,0,0,237,55.2Z" style="fill:#e6e6e6"></path><path d="M453.31,337.8H260.21a5.72,5.72,0,0,1-5.71-5.71V60.66A5.72,5.72,0,0,1,260.21,55h193.1A5.71,5.71,0,0,1,459,60.66V332.09A5.71,5.71,0,0,1,453.31,337.8ZM260.21,55.2a5.47,5.47,0,0,0-5.46,5.46V332.09a5.47,5.47,0,0,0,5.46,5.46h193.1a5.47,5.47,0,0,0,5.46-5.46V60.66a5.47,5.47,0,0,0-5.46-5.46Z" style="fill:#e6e6e6"></path><polygon points="287.29 258.68 289.52 257.51 291.74 258.68 291.74 382.4 287.29 382.4 287.29 258.68" style="fill:#f0f0f0"></polygon><polygon points="312.99 258.68 315.22 257.51 317.44 258.68 317.44 382.4 312.99 382.4 312.99 258.68" style="fill:#f0f0f0"></polygon><polygon points="338.69 258.68 340.92 257.51 343.14 258.68 343.14 382.4 338.69 382.4 338.69 258.68" style="fill:#f0f0f0"></polygon><polygon points="364.39 258.68 366.62 257.51 368.84 258.68 368.84 382.4 364.39 382.4 364.39 258.68" style="fill:#f0f0f0"></polygon><polygon points="390.1 258.68 392.32 257.51 394.55 258.68 394.55 382.4 390.1 382.4 390.1 258.68" style="fill:#f0f0f0"></polygon><polygon points="415.8 258.68 418.02 257.51 420.25 258.68 420.25 382.4 415.8 382.4 415.8 258.68" style="fill:#f0f0f0"></polygon><polygon points="441.5 258.68 443.72 257.51 445.95 258.68 445.95 382.4 441.5 382.4 441.5 258.68" style="fill:#f0f0f0"></polygon><rect x="289.52" y="274.53" width="154.2" height="4" transform="translate(733.24 553.06) rotate(180)" style="fill:#f0f0f0"></rect><rect x="289.52" y="358.53" width="154.2" height="4" transform="translate(733.24 721.06) rotate(180)" style="fill:#f0f0f0"></rect><rect x="122.62" y="97.76" width="109.76" height="242.76" style="fill:#ebebeb"></rect><rect x="127.83" y="97.76" width="104.56" height="242.76" style="fill:#fafafa"></rect><rect x="64.24" y="172.36" width="231.74" height="93.55" transform="translate(399.25 39.03) rotate(90)" style="fill:#fafafa"></rect><rect x="167.45" y="91.48" width="25.31" height="77.95" transform="translate(310.56 -49.66) rotate(90)" style="fill:#ebebeb"></rect><rect x="152.43" y="253.95" width="55.36" height="77.95" transform="translate(473.03 112.81) rotate(90)" style="fill:#ebebeb"></rect><rect x="141.14" y="150.05" width="35.22" height="108.05" transform="translate(317.49 408.15) rotate(180)" style="fill:#ebebeb"></rect><rect x="183.87" y="150.05" width="35.22" height="108.05" transform="translate(402.95 408.15) rotate(180)" style="fill:#ebebeb"></rect><rect x="110.3" y="218.42" width="231.74" height="1.43" transform="translate(445.3 -7.03) rotate(90)" style="fill:#f0f0f0"></rect><path d="M219.08,209.1a4.69,4.69,0,1,1-4.69-4.69A4.7,4.7,0,0,1,219.08,209.1Z" style="fill:#e0e0e0"></path><path d="M220.92,208.13a4.7,4.7,0,1,1-4.69-4.69A4.69,4.69,0,0,1,220.92,208.13Z" style="fill:#fafafa"></path><rect x="122.62" y="340.52" width="20.94" height="20.94" style="fill:#ebebeb"></rect><rect x="143.57" y="340.52" width="109.81" height="20.94" transform="translate(396.94 701.97) rotate(180)" style="fill:#fafafa"></rect><rect x="122.62" y="361.46" width="41.88" height="20.94" style="fill:#ebebeb"></rect><rect x="164.51" y="361.46" width="109.81" height="20.94" transform="translate(438.82 743.86) rotate(180)" style="fill:#fafafa"></rect><rect x="265.89" y="97.76" width="49.36" height="129.56" style="fill:#e0e0e0"></rect><rect x="268.9" y="97.76" width="49.36" height="129.56" style="fill:#f5f5f5"></rect><rect x="234.88" y="143.27" width="117.4" height="38.53" transform="translate(456.12 -131.05) rotate(90)" style="fill:#fff"></rect><rect x="253.01" y="161.4" width="117.4" height="2.28" transform="translate(474.25 -149.17) rotate(90)" style="fill:#e0e0e0"></rect><rect x="271.14" y="184.75" width="44.88" height="8.16" style="fill:#f5f5f5"></rect><rect x="332.44" y="97.76" width="49.36" height="129.56" style="fill:#e0e0e0"></rect><rect x="335.45" y="97.76" width="49.36" height="129.56" style="fill:#f5f5f5"></rect><rect x="301.43" y="143.27" width="117.4" height="38.53" transform="translate(522.67 -197.6) rotate(90)" style="fill:#fff"></rect><rect x="319.56" y="161.4" width="117.4" height="2.28" transform="translate(540.8 -215.72) rotate(90)" style="fill:#e0e0e0"></rect><rect x="337.69" y="184.75" width="44.88" height="8.16" style="fill:#f5f5f5"></rect><rect x="398.98" y="97.76" width="49.36" height="129.56" style="fill:#e0e0e0"></rect><rect x="402" y="97.76" width="49.36" height="129.56" style="fill:#f5f5f5"></rect><rect x="367.98" y="143.27" width="117.4" height="38.53" transform="translate(589.22 -264.14) rotate(90)" style="fill:#fff"></rect><rect x="386.11" y="161.4" width="117.4" height="2.28" transform="translate(607.34 -282.27) rotate(90)" style="fill:#e0e0e0"></rect><rect x="404.24" y="184.75" width="44.88" height="8.16" style="fill:#f5f5f5"></rect><rect x="53.9" y="97.76" width="49.36" height="129.56" style="fill:#e0e0e0"></rect><rect x="56.92" y="97.76" width="49.36" height="129.56" style="fill:#f5f5f5"></rect><rect x="22.9" y="143.27" width="117.4" height="38.53" transform="translate(244.14 80.94) rotate(90)" style="fill:#fff"></rect><rect x="41.03" y="161.4" width="117.4" height="2.28" transform="translate(262.26 62.81) rotate(90)" style="fill:#e0e0e0"></rect><rect x="59.16" y="184.75" width="44.88" height="8.16" style="fill:#f5f5f5"></rect><polygon points="122.63 74.5 122.63 87.5 131 87.5 122.63 74.5" style="fill:#ebebeb"></polygon><polygon points="232.39 74.5 122.63 74.5 131 87.5 240.76 87.5 232.39 74.5" style="fill:#fafafa"></polygon></g><g id="freepik--Shadow--inject-45"><ellipse cx="250" cy="416.24" rx="193.89" ry="11.32" style="fill:#f5f5f5"></ellipse></g><g id="freepik--Map--inject-45"><polygon points="254.87 398.06 338.15 401.68 326.14 129.61 242.85 125.99 254.87 398.06" style="fill:#22C55E"></polygon><polygon points="254.87 398.06 338.15 401.68 326.14 129.61 242.85 125.99 254.87 398.06" style="opacity:0.6000000000000001"></polygon><polygon points="172.42 413.33 254.87 398.06 242.85 125.99 160.4 141.26 172.42 413.33" style="fill:#22C55E"></polygon><polygon points="172.42 413.33 254.87 398.06 242.85 125.99 160.4 141.26 172.42 413.33" style="opacity:0.6000000000000001"></polygon><polygon points="89.13 409.71 172.42 413.33 160.4 141.26 77.11 137.64 89.13 409.71" style="fill:#22C55E"></polygon><polygon points="89.13 409.71 172.42 413.33 160.4 141.26 77.11 137.64 89.13 409.71" style="opacity:0.6000000000000001"></polygon><rect x="123.91" y="126.82" width="0.93" height="16.64" transform="translate(-16.04 253.52) rotate(-87.51)" style="fill:#22C55E"></rect><rect x="77.82" y="257.52" width="0.93" height="6.4" transform="translate(-11.44 3.71) rotate(-2.53)" style="fill:#22C55E"></rect><rect x="78.49" y="268.63" width="0.93" height="14.4" transform="translate(-12.09 3.75) rotate(-2.53)" style="fill:#22C55E"></rect><circle cx="125.12" cy="206.41" r="22.29" style="fill:#22C55E;opacity:0.6000000000000001"></circle><circle cx="225.92" cy="306.19" r="15.62" transform="translate(-152.68 268.04) rotate(-47.82)" style="fill:#22C55E;opacity:0.2"></circle><path d="M331.49,314.44,278.74,287,299,226.34l22.3,18.25,7.72-9.43-80.45-65.84-54.68-34.47-6.5,10.3,31.14,19.63-58.36,54.35L84.31,275.25,91.55,285l22.71-16.8,27.18,139.37,11.95-2.33L125.11,260.21l18.86-14,18.73,13,84.6,25.07,16.42,8.56L246.3,328.81,222,395.36l11.44,4.18,24.11-66,17-35.07,51.33,26.74ZM168,248.11l-13.72-9.51,13.36-9.88.27-.21,61.23-57,12.25,7.73,47.48,38.85-21.1,63.18L251.89,273Z" style="fill:#22C55E"></path><polygon points="173.2 413.33 255.65 398.06 243.63 125.99 161.18 141.26 173.2 413.33" style="fill:#263238;opacity:0.30000000000000004;mix-blend-mode:multiply"></polygon><circle cx="125.12" cy="206.41" r="22.29" style="opacity:0.1"></circle><path d="M331.49,314.44,278.74,287,299,226.34l22.3,18.25,7.72-9.43-80.45-65.84-54.68-34.47-6.5,10.3,31.14,19.63-58.36,54.35L84.31,275.25,91.55,285l22.71-16.8,27.18,139.37,11.95-2.33L125.11,260.21l18.86-14,18.73,13,84.6,25.07,16.42,8.56L246.3,328.81,222,395.36l11.44,4.18,24.11-66,17-35.07,51.33,26.74ZM168,248.11l-13.72-9.51,13.36-9.88.27-.21,61.23-57,12.25,7.73,47.48,38.85-21.1,63.18L251.89,273Z" style="opacity:0.7000000000000001"></path><path d="M327.54,130l-84.81-3.68-82.46,15.26-84.72-3.68L87.72,413.51l84.82,3.69L255,401.93l84.73,3.69Zm-72,259.78-1.38-.06-1.36.26-81.09,15L99.4,401.83,88.3,150.63l71.44,3.1,1.39.06,1.36-.25,81.09-15,72.29,3.14L327,392.87Z" style="fill:#22C55E"></path><path d="M327.54,130l-84.81-3.68-82.46,15.26-84.72-3.68L87.72,413.51l84.82,3.69L255,401.93l84.73,3.69Zm-72,259.78-1.38-.06-1.36.26-81.09,15L99.4,401.83,88.3,150.63l71.44,3.1,1.39.06,1.36-.25,81.09-15,72.29,3.14L327,392.87Z" style="opacity:0.7000000000000001"></path><rect x="123.91" y="126.82" width="0.93" height="16.64" transform="translate(-16.04 253.52) rotate(-87.51)" style="opacity:0.7000000000000001"></rect><rect x="77.82" y="257.52" width="0.93" height="6.4" transform="translate(-11.44 3.71) rotate(-2.53)" style="opacity:0.7000000000000001"></rect><rect x="78.49" y="268.63" width="0.93" height="14.4" transform="translate(-12.09 3.75) rotate(-2.53)" style="opacity:0.7000000000000001"></rect></g><g id="freepik--Character--inject-45"><path d="M370.55,185.34a39.84,39.84,0,0,0-57.75,54.14l-.54,14.73,14.44-3a39.84,39.84,0,0,0,43.85-65.9Z" style="fill:#22C55E"></path><circle cx="344.81" cy="215.76" r="30.09" transform="translate(-16.92 29.75) rotate(-4.82)" style="fill:#22C55E"></circle><circle cx="344.81" cy="215.76" r="30.09" transform="translate(-16.92 29.75) rotate(-4.82)" style="opacity:0.30000000000000004"></circle><polygon points="361.98 410.99 354.64 410.99 353.91 393.98 361.25 393.98 361.98 410.99" style="fill:#e4897b"></polygon><path d="M399.71,189.36c.64,1.26,1.17,2.38,1.68,3.58s1,2.37,1.51,3.56c1,2.39,1.84,4.82,2.62,7.29s1.51,5,2.07,7.56c.31,1.27.53,2.59.79,3.9s.41,2.64.52,4l.1,1,0,.26,0,.38a7.36,7.36,0,0,1,0,1.15,8.62,8.62,0,0,1-1.37,4,12.42,12.42,0,0,1-4.35,3.92,30.8,30.8,0,0,1-8,3,70.11,70.11,0,0,1-15.43,1.85l-.7-5.47A130.25,130.25,0,0,0,392.72,225a26.68,26.68,0,0,0,5.54-2.91c.67-.49,1.12-1.08,1-1.1a.93.93,0,0,0-.22.54,1.8,1.8,0,0,0,0,.22s0,.06,0,0l0-.1,0-.21-.16-.82a85.1,85.1,0,0,0-3.78-13.29c-.8-2.22-1.67-4.43-2.56-6.63s-1.87-4.43-2.77-6.45Z" style="fill:#e4897b"></path><path d="M398.41,184c6.38,3,10,23.1,10,23.1l-15.57,6.21a116.48,116.48,0,0,1-5.5-17.15C385.2,186.9,391.9,180.9,398.41,184Z" style="fill:#22C55E"></path><path d="M398.41,184c6.38,3,10,23.1,10,23.1l-15.57,6.21a116.48,116.48,0,0,1-5.5-17.15C385.2,186.9,391.9,180.9,398.41,184Z" style="fill:#fff;opacity:0.7000000000000001"></path><polygon points="417.14 410.99 409.79 410.99 404.73 393.98 412.08 393.98 417.14 410.99" style="fill:#e4897b"></polygon><polygon points="353.91 393.98 354.28 402.75 361.63 402.75 361.26 393.98 353.91 393.98" style="fill:#ce6f64"></polygon><polygon points="412.08 393.98 404.73 393.98 407.34 402.75 414.69 402.75 412.08 393.98" style="fill:#ce6f64"></polygon><path d="M369.43,247.36S363.34,299,367.91,320c5,23,36.53,81.06,36.53,81.06H417.9s-25.09-56.17-27.95-79c-3.1-24.75,4.84-54.64,4.84-74.71Z" style="fill:#22C55E"></path><path d="M369.43,247.36S363.34,299,367.91,320c5,23,36.53,81.06,36.53,81.06H417.9s-25.09-56.17-27.95-79c-3.1-24.75,4.84-54.64,4.84-74.71Z" style="opacity:0.6000000000000001"></path><path d="M380.61,229l-5.13-1.84.16,9.39s4.15.27,6.45-2.43Z" style="fill:#e4897b"></path><polygon points="369 226.82 369.5 234.57 375.64 236.54 375.48 227.16 369 226.82" style="fill:#e4897b"></polygon><path d="M361.13,162c.12.58-.09,1.11-.47,1.19s-.78-.33-.9-.91.09-1.12.47-1.19S361,161.39,361.13,162Z" style="fill:#263238"></path><path d="M361.09,163.07a21.26,21.26,0,0,1-1.78,5.53,3.42,3.42,0,0,0,2.88,0Z" style="fill:#de5753"></path><path d="M359.63,158.41a.36.36,0,0,1-.29-.16.34.34,0,0,1,.11-.48,3.44,3.44,0,0,1,3.17-.09.35.35,0,0,1,.17.46.34.34,0,0,1-.46.17,2.74,2.74,0,0,0-2.51.05A.41.41,0,0,1,359.63,158.41Z" style="fill:#263238"></path><path d="M382.28,163c-1.06,5.37-2.11,15.22,1.65,18.81,0,0-1.47,5.45-11.45,5.45-11,0-5.25-5.45-5.25-5.45,6-1.44,5.84-5.88,4.79-10.06Z" style="fill:#e4897b"></path><path d="M365.06,182.83l1.22-2.19s19-3.47,19.53.39a7.39,7.39,0,0,1-.25,2.42Z" style="fill:#22C55E"></path><path d="M406.71,411.37a2.36,2.36,0,0,1-1.77-.49.68.68,0,0,1,0-.82.81.81,0,0,1,.54-.41c1.08-.26,3.1,1.14,3.19,1.2a.17.17,0,0,1-.06.31A9.32,9.32,0,0,1,406.71,411.37Zm-.92-1.4a.78.78,0,0,0-.22,0,.48.48,0,0,0-.32.23c-.16.29-.06.41,0,.45.31.41,1.81.42,2.91.24A5.74,5.74,0,0,0,405.79,410Z" style="fill:#22C55E"></path><path d="M408.58,411.17a.11.11,0,0,1-.08,0c-.76-.41-2.23-2-2.08-2.84a.57.57,0,0,1,.56-.45,1,1,0,0,1,.74.22c.85.7,1,2.82,1,2.91a.16.16,0,0,1-.08.16A.14.14,0,0,1,408.58,411.17Zm-1.48-3H407c-.23,0-.25.13-.26.18-.09.48.85,1.7,1.6,2.27a4.19,4.19,0,0,0-.86-2.3A.64.64,0,0,0,407.1,408.19Z" style="fill:#22C55E"></path><path d="M351.69,411.37c-.95,0-1.86-.13-2.16-.56a.66.66,0,0,1,0-.76.88.88,0,0,1,.55-.4c1.23-.34,3.79,1.13,3.9,1.19a.17.17,0,0,1,.09.18.17.17,0,0,1-.14.14A13.12,13.12,0,0,1,351.69,411.37Zm-1.17-1.43a1.66,1.66,0,0,0-.33,0,.55.55,0,0,0-.35.25c-.12.21-.07.32,0,.38.34.48,2.2.49,3.57.29A7.93,7.93,0,0,0,350.52,409.94Z" style="fill:#22C55E"></path><path d="M353.91,411.17l-.08,0c-.88-.4-2.64-2-2.5-2.82,0-.19.17-.44.64-.48a1.25,1.25,0,0,1,1,.3c.93.76,1.13,2.74,1.14,2.82a.18.18,0,0,1-.07.16A.21.21,0,0,1,353.91,411.17Zm-1.8-3H352c-.31,0-.33.16-.34.2-.08.5,1.11,1.74,2,2.29a4.18,4.18,0,0,0-1-2.27A1,1,0,0,0,352.11,408.19Z" style="fill:#22C55E"></path><path d="M407.09,411H417a.76.76,0,0,1,.75.52l1.73,6.73a1.16,1.16,0,0,1-1.28,1.34c-3.45,0-5.13-.22-9.47-.22-2.67,0-8.18.24-11.86.24s-4.18-3.14-2.67-3.43c6.78-1.28,9.33-3,11.5-4.71A2.29,2.29,0,0,1,407.09,411Z" style="fill:#263238"></path><path d="M354.69,410.14h8a.63.63,0,0,1,.62.5l1.46,6.53a1.07,1.07,0,0,1-1.06,1.31c-2.9-.05-7.08-.22-10.71-.22-4.26,0-7.93.23-12.92.23-3,0-3.85-3.05-2.59-3.32,5.75-1.26,10.44-1.39,15.41-4.46A3.41,3.41,0,0,1,354.69,410.14Z" style="fill:#263238"></path><path d="M364.45,194.62c-3.47,4.07-7,8-10.6,12s-7.28,7.8-11.05,11.63L340,221.07l-.43.42a9.35,9.35,0,0,1-.76.67,10,10,0,0,1-1.57,1,12.13,12.13,0,0,1-3,1.1,25.83,25.83,0,0,1-9.58.12,64.48,64.48,0,0,1-16.07-4.83l1.64-5.27a109.11,109.11,0,0,0,15.12,1.42,31.69,31.69,0,0,0,3.46-.17,11.4,11.4,0,0,0,2.79-.61,3.23,3.23,0,0,0,.73-.39c.05-.05.08-.08.07-.1h0l.1-.11.16-.19,2.58-3,10.36-12c3.47-4,7-8,10.5-11.9Z" style="fill:#e4897b"></path><path d="M391.94,197.22l-4.64-1a116.48,116.48,0,0,0,5.5,17.15l6.43-2.57C397.91,207.35,394.57,202.28,391.94,197.22Z" style="fill:#22C55E;opacity:0.2"></path><path d="M352.5,200.61c-.21,3.86-.25,8.57,0,14.31l6.83-16.66Z" style="fill:#22C55E"></path><path d="M311.22,214.8l-5.59-5.37-3.08,9s2.14,2.66,7.31,1.27Z" style="fill:#e4897b"></path><polygon points="301.39 207.57 299.22 215.44 302.55 218.45 305.63 209.43 301.39 207.57" style="fill:#e4897b"></polygon><path d="M380.26,156.84c1,7.23,1.95,11.4-.92,15.79-4.31,6.6-13.77,5.1-16.91-1.68-2.82-6.1-4-16.89,2.44-21.13A9.94,9.94,0,0,1,380.26,156.84Z" style="fill:#e4897b"></path><path d="M388.22,153c.1-4.67-3.24-8.07-4.94-7.57-2-8.37-16.3-4.12-16.3-4.12s3.33-4.75-3.13-4.77-4.65,5.15-4.65,5.15-3.93-3.85-6.49.32,3,5.62,3,5.62-4.64-1.07-5.25,5,7.65,1.23,7.65,1.23c1.4,2.58,3.05,3.09,4.65,2.88a3.66,3.66,0,0,1,3.91,2.55c2.31,7,6.73,13.31,13.32,11.38C385.26,169.11,388.07,159.83,388.22,153Z" style="fill:#263238"></path><path d="M371,159.93a8.29,8.29,0,0,1-1.07,5.19c-1.23,2-3.08,1.29-3.78-.76-.63-1.85-.75-5.13,1-6.47S370.71,157.77,371,159.93Z" style="fill:#e4897b"></path><path d="M373.11,265.11c-1.22-3.58-3.49.12-5.85,6.09-.83,11.84-1.44,26-.76,37.3C369.23,294.57,375.8,273,373.11,265.11Z" style="opacity:0.30000000000000004"></path><path d="M355.5,247.36s-16,46.11-15.22,68.52c.83,23.3,11.27,85.17,11.27,85.17H364s-1.84-60.51-1.29-83.4c.61-24.95,18.62-70.29,18.62-70.29Z" style="fill:#22C55E"></path><path d="M355.5,247.36s-16,46.11-15.22,68.52c.83,23.3,11.27,85.17,11.27,85.17H364s-1.84-60.51-1.29-83.4c.61-24.95,18.62-70.29,18.62-70.29Z" style="opacity:0.6000000000000001"></path><path d="M400.83,396.33c-.06,0,2.85,4.93,2.85,4.93h15.14l-1.49-4.93Z" style="fill:#22C55E"></path><path d="M349.15,396.1c-.06,0,.7,5.16.7,5.16H365l.41-4.61Z" style="fill:#22C55E"></path><path d="M355.93,183.86s-7.82,8.84-.43,63.5h39.29c.27-6-3.52-35.45,2.3-63.87a100.85,100.85,0,0,0-13.16-1.66,140.87,140.87,0,0,0-16.7,0A74.19,74.19,0,0,0,355.93,183.86Z" style="fill:#22C55E"></path><path d="M355.93,183.86s-7.82,8.84-.43,63.5h39.29c.27-6-3.52-35.45,2.3-63.87a100.85,100.85,0,0,0-13.16-1.66,140.87,140.87,0,0,0-16.7,0A74.19,74.19,0,0,0,355.93,183.86Z" style="fill:#fff;opacity:0.7000000000000001"></path><path d="M363.76,190.36c-.09,7-13.84,24.13-13.84,24.13L336.58,204.4s4.24-9.64,11-15.73C356.19,180.86,363.86,182.14,363.76,190.36Z" style="fill:#22C55E"></path><path d="M363.76,190.36c-.09,7-13.84,24.13-13.84,24.13L336.58,204.4s4.24-9.64,11-15.73C356.19,180.86,363.86,182.14,363.76,190.36Z" style="fill:#fff;opacity:0.7000000000000001"></path></g></svg>