<svg xmlns="http://www.w3.org/2000/svg" viewBox="0 0 750 500"><g id="freepik--Floor--inject-197"><path d="M677.66,478.23c0,.14-133.28.26-297.65.26s-297.67-.12-297.67-.26S215.59,478,380,478,677.66,478.08,677.66,478.23Z" style="fill:#263238"></path></g><g id="freepik--Device--inject-197"><path d="M619.55,78.28l-.17,305.81a17.11,17.11,0,0,1-17.13,17.11L148.48,401a17.11,17.11,0,0,1-17.11-17.13L131.53,78A17.14,17.14,0,0,1,148.66,60.9l453.77.24A17.14,17.14,0,0,1,619.55,78.28Z" style="fill:#e0e0e0"></path><path d="M619.55,78.28s0-.36-.07-1.06a8.86,8.86,0,0,0-.13-1.3,13.81,13.81,0,0,0-.36-1.79,16.09,16.09,0,0,0-2-4.74,17.39,17.39,0,0,0-4.86-5.15,16.39,16.39,0,0,0-3.8-2,16.57,16.57,0,0,0-4.63-1l-1.26-.06H391.09l-120.38,0-67,0h-53a28.86,28.86,0,0,0-4.47.2,16.55,16.55,0,0,0-4.28,1.2A17,17,0,0,0,135,68.08,19.65,19.65,0,0,0,133.81,70a21,21,0,0,0-.92,2,16.93,16.93,0,0,0-1,4.39c-.1,1.49-.08,3-.08,4.57v4.61q0,9.22,0,18.57,0,18.69,0,37.79,0,38.2,0,77.94c0,52.95-.05,107.76-.08,163.9a19.22,19.22,0,0,0,.77,5.11,18.21,18.21,0,0,0,2.29,4.61,16.76,16.76,0,0,0,3.57,3.71,15.78,15.78,0,0,0,4.5,2.46c3.23,1.31,6.77,1,10.24,1h10.42l41.31,0,80.77,0,152.7.1,138.16.09,16.09,0h7.94a33.76,33.76,0,0,0,3.91-.13,16.65,16.65,0,0,0,3.76-.91,17,17,0,0,0,10.29-10.64c.19-.6.32-1.22.49-1.83s.21-1.24.26-1.87c.09-1.25.09-2.52.08-3.79q0-3.81,0-7.57,0-30.12,0-57.76c.07-73.59.13-133.14.17-174.3,0-20.58.06-36.56.08-47.39,0-5.42,0-9.55,0-12.33s0-4.19,0-4.19,0,1.42,0,4.19,0,6.91,0,12.33c0,10.83,0,26.81,0,47.39,0,41.16,0,100.71,0,174.3q0,27.6,0,57.76v7.57c0,1.27,0,2.54-.08,3.83-.06.64-.18,1.28-.27,1.92s-.3,1.26-.5,1.87a17.4,17.4,0,0,1-10.54,10.91,16.38,16.38,0,0,1-3.85.92,30.9,30.9,0,0,1-4,.14h-24l-138.17-.05-152.69-.07-80.77,0-41.31,0H153c-1.74,0-3.47,0-5.23,0a17.38,17.38,0,0,1-9.83-3.56,16.64,16.64,0,0,1-3.67-3.82,17.93,17.93,0,0,1-2.36-4.76,19.1,19.1,0,0,1-.8-5.26c0-56.14.06-111,.09-163.9q0-39.7.05-77.94,0-19.09,0-37.79,0-9.34,0-18.57V81c0-1.54,0-3.06.08-4.62a17.87,17.87,0,0,1,1.07-4.51,18.14,18.14,0,0,1,.95-2.11,20.68,20.68,0,0,1,1.25-1.94,17.49,17.49,0,0,1,7.11-5.7,17,17,0,0,1,4.41-1.23,28.73,28.73,0,0,1,4.53-.2h17.9l35.07,0,67,0,120.38.1L565.4,61l27.35,0h9.7l1.27.06a16.36,16.36,0,0,1,4.66,1,16.77,16.77,0,0,1,3.82,2,17.56,17.56,0,0,1,4.87,5.2,16.34,16.34,0,0,1,2,4.76,13.89,13.89,0,0,1,.34,1.8,8.91,8.91,0,0,1,.12,1.31C619.54,77.92,619.55,78.28,619.55,78.28Z" style="fill:#263238"></path><rect x="209.65" y="27.91" width="318.61" height="407.55" transform="matrix(0, -1, 1, 0, 137.07, 600.52)" style="fill:#fff"></rect><path d="M595,218.12a13.05,13.05,0,1,1-13.06,13A13.05,13.05,0,0,1,595,218.12Z" style="fill:#263238"></path><rect x="96.99" y="228.24" width="102.42" height="5.39" rx="1.22" transform="matrix(0, -1, 1, 0, -82.81, 379.01)" style="fill:#263238"></rect><rect x="196.3" y="342.77" width="159.37" height="26.4" rx="5.43" style="fill:#f5f5f5"></rect><rect x="194.94" y="286.22" width="159.37" height="26.4" rx="5.43" style="fill:#f5f5f5"></rect><rect x="366.21" y="286.22" width="159.37" height="26.4" rx="5.43" style="fill:#f5f5f5"></rect><rect x="370.47" y="125.54" width="153.44" height="26.4" rx="5.43" style="fill:#f5f5f5"></rect><rect x="196.3" y="177.97" width="331.23" height="26.4" rx="5.43" style="fill:#f5f5f5"></rect><rect x="196.06" y="125.54" width="159.37" height="26.4" rx="5.43" style="fill:#f5f5f5"></rect><path d="M207.11,139.37v1.8h-.74v-1.81L204.31,136h.79l1.67,2.74,1.67-2.74h.73Z" style="fill:#e0e0e0"></path><path d="M209,139.2a2.05,2.05,0,1,1,2.05,2A2,2,0,0,1,209,139.2Zm3.38,0a1.33,1.33,0,1,0-1.33,1.39A1.29,1.29,0,0,0,212.39,139.2Z" style="fill:#e0e0e0"></path><path d="M217.77,137.23v3.94h-.68v-.59a1.62,1.62,0,0,1-1.34.63,1.54,1.54,0,0,1-1.69-1.71v-2.27h.71v2.19c0,.77.39,1.16,1.07,1.16a1.15,1.15,0,0,0,1.21-1.31v-2Z" style="fill:#e0e0e0"></path><path d="M221.25,137.19v.7h-.17a1.18,1.18,0,0,0-1.24,1.33v2h-.71v-3.94h.68v.66A1.52,1.52,0,0,1,221.25,137.19Z" style="fill:#e0e0e0"></path><path d="M228.76,136v5.2h-.61L225,137.29v3.88h-.74V136h.61l3.12,3.88V136Z" style="fill:#e0e0e0"></path><path d="M233.34,138.79v2.38h-.68v-.52a1.46,1.46,0,0,1-1.29.56c-.9,0-1.46-.47-1.46-1.15s.41-1.16,1.58-1.16h1.13v-.14c0-.6-.35-.95-1.05-.95a1.93,1.93,0,0,0-1.25.43l-.3-.54a2.62,2.62,0,0,1,1.63-.51C232.73,137.19,233.34,137.71,233.34,138.79Zm-.72,1.18v-.55h-1.1c-.7,0-.9.27-.9.61s.32.63.86.63A1.14,1.14,0,0,0,232.62,140Z" style="fill:#e0e0e0"></path><path d="M241.2,138.9v2.27h-.71V139c0-.78-.38-1.16-1-1.16s-1.18.46-1.18,1.31v2h-.72V139c0-.78-.37-1.16-1-1.16a1.15,1.15,0,0,0-1.18,1.31v2h-.71v-3.94h.68v.59a1.62,1.62,0,0,1,1.36-.63,1.46,1.46,0,0,1,1.37.73,1.8,1.8,0,0,1,1.52-.73A1.51,1.51,0,0,1,241.2,138.9Z" style="fill:#e0e0e0"></path><path d="M246.08,139.44h-3.19a1.34,1.34,0,0,0,1.43,1.15,1.49,1.49,0,0,0,1.13-.47l.4.46a2,2,0,0,1-1.56.63,2,2,0,0,1-2.11-2,1.93,1.93,0,0,1,2-2,1.9,1.9,0,0,1,1.95,2A1.8,1.8,0,0,1,246.08,139.44Zm-3.19-.51h2.53a1.27,1.27,0,0,0-2.53,0Z" style="fill:#e0e0e0"></path><path d="M224.42,113.59v5.21h-.8l-2.87-3.53v3.53h-1v-5.21h.8l2.87,3.53v-3.53Z" style="fill:#263238"></path><path d="M229.05,116.47v2.33h-.88v-.49a1.38,1.38,0,0,1-1.25.54c-.9,0-1.48-.5-1.48-1.19s.45-1.18,1.65-1.18h1v-.06c0-.54-.33-.86-1-.86a1.92,1.92,0,0,0-1.2.39l-.37-.68a2.85,2.85,0,0,1,1.68-.49C228.39,114.78,229.05,115.33,229.05,116.47Zm-.93,1.09v-.47h-1c-.63,0-.8.24-.8.53s.28.55.76.55A1,1,0,0,0,228.12,117.56Z" style="fill:#263238"></path><path d="M236.87,116.52v2.28H236v-2.16c0-.7-.33-1-.9-1s-1,.4-1,1.19v2h-.93v-2.16c0-.7-.32-1-.89-1s-1,.4-1,1.19v2h-.93v-4h.88v.5a1.67,1.67,0,0,1,1.3-.55,1.5,1.5,0,0,1,1.34.66,1.89,1.89,0,0,1,1.49-.66A1.52,1.52,0,0,1,236.87,116.52Z" style="fill:#263238"></path><path d="M241.82,117.11h-3.11a1.19,1.19,0,0,0,1.28,1,1.42,1.42,0,0,0,1.08-.43l.5.57a2.23,2.23,0,0,1-3.79-1.39,2,2,0,0,1,2.05-2,1.94,1.94,0,0,1,2,2C241.84,116.91,241.83,117,241.82,117.11Zm-3.12-.62H241a1.07,1.07,0,0,0-1.12-1A1.09,1.09,0,0,0,238.7,116.49Z" style="fill:#263238"></path><path d="M202.44,114.62v1.29h2.26v.91h-2.26v1.77h-1.12v-4.87H205v.9Z" style="fill:#263238"></path><path d="M205.48,113.72a.62.62,0,0,1,.67-.61.61.61,0,0,1,.68.59.63.63,0,0,1-.68.63A.62.62,0,0,1,205.48,113.72Zm.13,1.13h1.09v3.74h-1.09Z" style="fill:#263238"></path><path d="M210,114.79v1h-.25a.92.92,0,0,0-1,1v1.77H207.7v-3.74h1v.49A1.53,1.53,0,0,1,210,114.79Z" style="fill:#263238"></path><path d="M210.32,118.24l.37-.78a2.5,2.5,0,0,0,1.3.36c.5,0,.69-.13.69-.34,0-.61-2.27,0-2.27-1.48,0-.71.64-1.21,1.74-1.21a3.09,3.09,0,0,1,1.44.33l-.36.77a2.15,2.15,0,0,0-1.08-.28c-.49,0-.7.16-.7.35,0,.64,2.26,0,2.26,1.5,0,.69-.64,1.19-1.76,1.19A3.23,3.23,0,0,1,210.32,118.24Z" style="fill:#263238"></path><path d="M216.79,118.41a1.54,1.54,0,0,1-.88.24,1.24,1.24,0,0,1-1.4-1.35v-1.53h-.58v-.84h.58V114h1.08v.91h.94v.84h-.94v1.52a.44.44,0,0,0,.47.49.74.74,0,0,0,.44-.14Z" style="fill:#263238"></path><path d="M246.6,113l-.85,1.11v0l1.35-.18v.61l-1.35-.16h0l.86,1.08-.56.32-.54-1.25h0l-.58,1.26-.51-.33.85-1.08v0l-1.32.17v-.61l1.31.17v0L244.4,113l.55-.31.55,1.24h0l.54-1.25Z" style="fill:#22C55E"></path><path d="M208.13,301v1.8h-.73V301l-2.07-3.38h.8l1.66,2.74,1.67-2.74h.74Z" style="fill:#e0e0e0"></path><path d="M210,300.82a2,2,0,1,1,2.05,2A2,2,0,0,1,210,300.82Zm3.37,0a1.33,1.33,0,1,0-2.65,0,1.33,1.33,0,1,0,2.65,0Z" style="fill:#e0e0e0"></path><path d="M218.79,298.85v3.94h-.67v-.6a1.6,1.6,0,0,1-1.34.64,1.55,1.55,0,0,1-1.7-1.71v-2.27h.72V301c0,.78.38,1.16,1.06,1.16a1.16,1.16,0,0,0,1.22-1.3v-2Z" style="fill:#e0e0e0"></path><path d="M222.27,298.81v.69h-.16a1.17,1.17,0,0,0-1.24,1.33v2h-.72v-3.94h.69v.66A1.5,1.5,0,0,1,222.27,298.81Z" style="fill:#e0e0e0"></path><path d="M229.78,297.59v5.2h-.61l-3.12-3.88v3.88h-.74v-5.2h.61l3.12,3.88v-3.88Z" style="fill:#e0e0e0"></path><path d="M234.36,300.41v2.38h-.68v-.52a1.46,1.46,0,0,1-1.29.56c-.89,0-1.46-.47-1.46-1.16s.41-1.15,1.59-1.15h1.13v-.14c0-.6-.35-.95-1.06-.95a2,2,0,0,0-1.25.42l-.29-.53a2.57,2.57,0,0,1,1.62-.51C233.75,298.81,234.36,299.33,234.36,300.41Zm-.71,1.17V301h-1.1c-.71,0-.91.28-.91.61s.33.64.87.64A1.14,1.14,0,0,0,233.65,301.58Z" style="fill:#e0e0e0"></path><path d="M242.22,300.52v2.27h-.71V300.6c0-.77-.37-1.15-1-1.15s-1.18.45-1.18,1.31v2h-.71V300.6c0-.77-.37-1.15-1-1.15s-1.18.45-1.18,1.31v2h-.72v-3.94h.69v.59a1.57,1.57,0,0,1,1.36-.63,1.47,1.47,0,0,1,1.37.73,1.74,1.74,0,0,1,1.51-.73A1.51,1.51,0,0,1,242.22,300.52Z" style="fill:#e0e0e0"></path><path d="M247.11,301.06h-3.2a1.34,1.34,0,0,0,1.43,1.15,1.48,1.48,0,0,0,1.14-.48l.39.46a2.15,2.15,0,0,1-3.67-1.37,1.93,1.93,0,0,1,2-2,1.9,1.9,0,0,1,1.94,2A1.7,1.7,0,0,1,247.11,301.06Zm-3.2-.52h2.53a1.27,1.27,0,0,0-2.53,0Z" style="fill:#e0e0e0"></path><path d="M237.87,272.5l-.85,1.12v0l1.35-.18v.61l-1.35-.16h0l.86,1.08-.56.32-.54-1.25h0l-.58,1.26-.51-.33.85-1.08v0l-1.32.17v-.61l1.31.17v0l-.84-1.09.55-.31.55,1.24h0l.54-1.25Z" style="fill:#22C55E"></path><path d="M394.88,274.74l-.85,1.11v0l1.35-.18v.61l-1.35-.16v0l.86,1.07-.56.32-.54-1.25h0l-.59,1.26-.5-.32.84-1.09v0l-1.32.17v-.61l1.32.17h0l-.84-1.09.54-.32.55,1.24h0l.55-1.24Z" style="fill:#22C55E"></path><path d="M378,301v1.8h-.74V301l-2.06-3.38H376l1.67,2.74,1.67-2.74h.73Z" style="fill:#e0e0e0"></path><path d="M379.94,300.82a2.05,2.05,0,1,1,2.05,2A2,2,0,0,1,379.94,300.82Zm3.38,0a1.33,1.33,0,1,0-1.33,1.39A1.29,1.29,0,0,0,383.32,300.82Z" style="fill:#e0e0e0"></path><path d="M388.7,298.85v3.94H388v-.6a1.6,1.6,0,0,1-1.34.64,1.55,1.55,0,0,1-1.69-1.71v-2.27h.71V301c0,.78.39,1.16,1.07,1.16a1.15,1.15,0,0,0,1.21-1.3v-2Z" style="fill:#e0e0e0"></path><path d="M392.18,298.81v.69H392a1.17,1.17,0,0,0-1.24,1.33v2h-.71v-3.94h.68v.66A1.52,1.52,0,0,1,392.18,298.81Z" style="fill:#e0e0e0"></path><path d="M399.69,297.59v5.2h-.61L396,298.91v3.88h-.74v-5.2h.61l3.12,3.88v-3.88Z" style="fill:#e0e0e0"></path><path d="M404.27,300.41v2.38h-.68v-.52a1.48,1.48,0,0,1-1.29.56c-.9,0-1.46-.47-1.46-1.16s.41-1.15,1.58-1.15h1.13v-.14c0-.6-.35-.95-1.05-.95a2,2,0,0,0-1.25.42l-.3-.53a2.62,2.62,0,0,1,1.63-.51C403.66,298.81,404.27,299.33,404.27,300.41Zm-.72,1.17V301h-1.1c-.7,0-.9.28-.9.61s.32.64.87.64A1.13,1.13,0,0,0,403.55,301.58Z" style="fill:#e0e0e0"></path><path d="M412.13,300.52v2.27h-.71V300.6c0-.77-.38-1.15-1-1.15s-1.18.45-1.18,1.31v2h-.72V300.6c0-.77-.37-1.15-1-1.15s-1.18.45-1.18,1.31v2h-.71v-3.94h.68v.59a1.59,1.59,0,0,1,1.36-.63,1.47,1.47,0,0,1,1.37.73,1.78,1.78,0,0,1,1.52-.73A1.51,1.51,0,0,1,412.13,300.52Z" style="fill:#e0e0e0"></path><path d="M417,301.06h-3.19a1.34,1.34,0,0,0,1.43,1.15,1.46,1.46,0,0,0,1.13-.48l.4.46a2.15,2.15,0,0,1-3.67-1.37,1.92,1.92,0,0,1,2-2,1.9,1.9,0,0,1,1.95,2A1.8,1.8,0,0,1,417,301.06Zm-3.19-.52h2.53a1.24,1.24,0,0,0-1.27-1.13A1.22,1.22,0,0,0,413.82,300.54Z" style="fill:#e0e0e0"></path><path d="M206.35,170.49v.81h-3.9v-5.21h3.8v.81h-2.83v1.36h2.51v.79h-2.51v1.44Z" style="fill:#263238"></path><path d="M214,169v2.28h-.93v-2.16c0-.71-.33-1-.89-1s-1,.4-1,1.19v2h-.93v-2.16c0-.71-.32-1-.89-1s-1,.4-1,1.19v2h-.93v-4h.89v.5a1.64,1.64,0,0,1,1.3-.55,1.48,1.48,0,0,1,1.33.66,1.89,1.89,0,0,1,1.49-.66A1.53,1.53,0,0,1,214,169Z" style="fill:#263238"></path><path d="M218.49,169v2.33h-.88v-.49a1.4,1.4,0,0,1-1.24.54c-.91,0-1.48-.5-1.48-1.19s.44-1.18,1.65-1.18h1v-.06c0-.54-.32-.86-1-.86a1.94,1.94,0,0,0-1.2.39l-.36-.68a2.83,2.83,0,0,1,1.68-.49C217.83,167.28,218.49,167.83,218.49,169Zm-.93,1.08v-.46h-1c-.63,0-.8.24-.8.53s.28.55.76.55A1,1,0,0,0,217.56,170.05Z" style="fill:#263238"></path><path d="M219.56,166.12a.56.56,0,0,1,.59-.56.55.55,0,0,1,.59.53.56.56,0,0,1-.59.58A.56.56,0,0,1,219.56,166.12Zm.12,1.21h.93v4h-.93Z" style="fill:#263238"></path><path d="M221.83,165.78h.93v5.52h-.93Z" style="fill:#263238"></path><path d="M208.13,192.74v1.8h-.73v-1.82l-2.07-3.38h.8l1.66,2.74,1.67-2.74h.74Z" style="fill:#e0e0e0"></path><path d="M210,192.57a2,2,0,1,1,2.05,2A2,2,0,0,1,210,192.57Zm3.37,0a1.33,1.33,0,1,0-2.65,0,1.33,1.33,0,1,0,2.65,0Z" style="fill:#e0e0e0"></path><path d="M218.79,190.6v3.94h-.67v-.6a1.6,1.6,0,0,1-1.34.64,1.55,1.55,0,0,1-1.7-1.71V190.6h.72v2.18c0,.78.38,1.16,1.06,1.16a1.16,1.16,0,0,0,1.22-1.3v-2Z" style="fill:#e0e0e0"></path><path d="M222.27,190.56v.69h-.16a1.17,1.17,0,0,0-1.24,1.33v2h-.72V190.6h.69v.66A1.5,1.5,0,0,1,222.27,190.56Z" style="fill:#e0e0e0"></path><path d="M229.08,193.89v.65h-3.77v-5.2H229V190h-2.93v1.6h2.61v.63h-2.61v1.68Z" style="fill:#e0e0e0"></path><path d="M236.72,192.27v2.27H236v-2.19c0-.77-.37-1.15-1-1.15s-1.18.45-1.18,1.31v2h-.71v-2.19c0-.77-.37-1.15-1-1.15s-1.18.45-1.18,1.31v2h-.72V190.6h.69v.59a1.59,1.59,0,0,1,1.36-.63,1.45,1.45,0,0,1,1.36.73,1.78,1.78,0,0,1,1.52-.73A1.51,1.51,0,0,1,236.72,192.27Z" style="fill:#e0e0e0"></path><path d="M241.16,192.16v2.38h-.67V194a1.49,1.49,0,0,1-1.3.56c-.89,0-1.45-.47-1.45-1.16s.41-1.15,1.58-1.15h1.13v-.14c0-.6-.35-.95-1.06-.95a2,2,0,0,0-1.24.42l-.3-.53a2.6,2.6,0,0,1,1.63-.51A1.47,1.47,0,0,1,241.16,192.16Zm-.71,1.17v-.55h-1.1c-.71,0-.91.28-.91.61s.33.64.87.64A1.14,1.14,0,0,0,240.45,193.33Z" style="fill:#e0e0e0"></path><path d="M242.36,189.38a.47.47,0,0,1,.48-.47.47.47,0,1,1-.48.47Zm.13,1.22h.71v3.94h-.71Z" style="fill:#e0e0e0"></path><path d="M244.56,189h.71v5.52h-.71Z" style="fill:#e0e0e0"></path><path d="M228.68,165.49l-.85,1.11v0l1.35-.18v.61l-1.35-.16h0l.86,1.08-.56.32-.54-1.25h0l-.59,1.26-.5-.33.84-1.08v0l-1.32.17v-.61l1.32.17v0l-.84-1.09.54-.31.55,1.24h0l.55-1.25Z" style="fill:#22C55E"></path><path d="M269.29,219.45l-.85,1.12v0l1.35-.18V221l-1.35-.16h0l.86,1.08-.56.32L268.2,221h0l-.58,1.26-.51-.33.85-1.08v0l-1.32.17v-.61l1.31.17v0l-.84-1.09.55-.31.55,1.24h0l.54-1.25Z" style="fill:#22C55E"></path><rect x="195.81" y="233.99" width="331.71" height="26.4" rx="5.43" style="fill:#f5f5f5"></rect><path d="M374.55,111.61h1V116h2.72v.82h-3.68Z" style="fill:#263238"></path><path d="M382.27,114.48v2.33h-.88v-.49a1.38,1.38,0,0,1-1.25.54c-.9,0-1.48-.5-1.48-1.19s.45-1.18,1.65-1.18h1v-.06c0-.54-.33-.86-1-.86a2,2,0,0,0-1.2.39l-.37-.68a2.85,2.85,0,0,1,1.68-.49C381.61,112.79,382.27,113.34,382.27,114.48Zm-.93,1.09v-.46h-1c-.63,0-.8.23-.8.52s.28.55.76.55A1,1,0,0,0,381.34,115.57Z" style="fill:#263238"></path><path d="M383,116.41l.35-.7a2.69,2.69,0,0,0,1.38.39c.59,0,.84-.16.84-.44,0-.76-2.46,0-2.46-1.63,0-.75.68-1.24,1.75-1.24a3.12,3.12,0,0,1,1.49.35l-.36.7a2.21,2.21,0,0,0-1.14-.3c-.56,0-.83.19-.83.45,0,.8,2.45.09,2.45,1.64,0,.75-.68,1.23-1.8,1.23A3,3,0,0,1,383,116.41Z" style="fill:#263238"></path><path d="M389.67,116.59a1.45,1.45,0,0,1-.89.27,1.22,1.22,0,0,1-1.37-1.34v-1.91h-.65v-.74h.65V112h.93v.91h1.06v.74h-1.06v1.89c0,.39.2.59.55.59a.83.83,0,0,0,.52-.16Z" style="fill:#263238"></path><path d="M397.2,111.61v5.2h-.79l-2.87-3.53v3.53h-1v-5.2h.79l2.87,3.52v-3.52Z" style="fill:#263238"></path><path d="M401.83,114.48v2.33H401v-.49a1.41,1.41,0,0,1-1.25.54c-.91,0-1.48-.5-1.48-1.19s.45-1.18,1.65-1.18h1v-.06c0-.54-.32-.86-1-.86a2,2,0,0,0-1.21.39l-.36-.68a2.83,2.83,0,0,1,1.68-.49C401.17,112.79,401.83,113.34,401.83,114.48Zm-.93,1.09v-.46H400c-.63,0-.81.23-.81.52s.29.55.76.55A1,1,0,0,0,400.9,115.57Z" style="fill:#263238"></path><path d="M409.66,114.53v2.28h-.93v-2.16c0-.7-.33-1.05-.89-1.05s-1,.41-1,1.19v2h-.93v-2.16c0-.7-.33-1.05-.89-1.05s-1,.41-1,1.19v2H403v-4h.88v.5a1.67,1.67,0,0,1,1.3-.55,1.49,1.49,0,0,1,1.34.67,1.84,1.84,0,0,1,1.48-.67A1.53,1.53,0,0,1,409.66,114.53Z" style="fill:#263238"></path><path d="M414.61,115.12h-3.12a1.2,1.2,0,0,0,1.29.95,1.45,1.45,0,0,0,1.08-.43l.49.57a2,2,0,0,1-1.59.65,2,2,0,0,1-2.2-2,2,2,0,0,1,2.05-2,1.94,1.94,0,0,1,2,2.06C414.62,114.92,414.61,115,414.61,115.12Zm-3.13-.62h2.26a1.15,1.15,0,0,0-2.26,0Z" style="fill:#263238"></path><path d="M383.74,139.37v1.8H383v-1.81L380.94,136h.8l1.66,2.74,1.67-2.74h.74Z" style="fill:#e0e0e0"></path><path d="M385.65,139.2a2,2,0,1,1,2.05,2A2,2,0,0,1,385.65,139.2Zm3.37,0a1.33,1.33,0,1,0-2.65,0,1.33,1.33,0,1,0,2.65,0Z" style="fill:#e0e0e0"></path><path d="M394.4,137.23v3.94h-.67v-.59a1.62,1.62,0,0,1-1.34.63,1.54,1.54,0,0,1-1.69-1.71v-2.27h.71v2.19c0,.77.39,1.16,1.06,1.16a1.16,1.16,0,0,0,1.22-1.31v-2Z" style="fill:#e0e0e0"></path><path d="M397.88,137.19v.7h-.16a1.17,1.17,0,0,0-1.24,1.33v2h-.71v-3.94h.68v.66A1.5,1.5,0,0,1,397.88,137.19Z" style="fill:#e0e0e0"></path><path d="M405.39,136v5.2h-.61l-3.12-3.88v3.88h-.74V136h.61l3.12,3.88V136Z" style="fill:#e0e0e0"></path><path d="M410,138.79v2.38h-.67v-.52a1.46,1.46,0,0,1-1.3.56c-.89,0-1.45-.47-1.45-1.15s.4-1.16,1.58-1.16h1.13v-.14c0-.6-.35-.95-1.06-.95a2,2,0,0,0-1.25.43l-.29-.54a2.59,2.59,0,0,1,1.62-.51C409.36,137.19,410,137.71,410,138.79Zm-.71,1.18v-.55h-1.1c-.71,0-.91.27-.91.61s.33.63.87.63A1.14,1.14,0,0,0,409.26,140Z" style="fill:#e0e0e0"></path><path d="M417.84,138.9v2.27h-.72V139c0-.78-.37-1.16-1-1.16a1.15,1.15,0,0,0-1.18,1.31v2h-.71V139c0-.78-.37-1.16-1-1.16a1.15,1.15,0,0,0-1.18,1.31v2h-.71v-3.94H412v.59a1.59,1.59,0,0,1,1.36-.63,1.47,1.47,0,0,1,1.37.73,1.77,1.77,0,0,1,1.51-.73A1.52,1.52,0,0,1,417.84,138.9Z" style="fill:#e0e0e0"></path><path d="M422.72,139.44h-3.19a1.32,1.32,0,0,0,1.42,1.15,1.51,1.51,0,0,0,1.14-.47l.39.46a2.15,2.15,0,0,1-3.67-1.38,1.93,1.93,0,0,1,2-2,1.89,1.89,0,0,1,1.94,2A1.7,1.7,0,0,1,422.72,139.44Zm-3.19-.51h2.52a1.27,1.27,0,0,0-2.52,0Z" style="fill:#e0e0e0"></path><path d="M419.71,111l-.85,1.11v0l1.35-.18v.61l-1.35-.16v0l.86,1.07-.56.32-.54-1.25h0l-.58,1.26-.51-.32.85-1.09v0l-1.32.17V112l1.31.17v0l-.84-1.09.55-.31.55,1.24h0l.54-1.25Z" style="fill:#22C55E"></path><path d="M199.82,222.06a2.65,2.65,0,0,1,2.78-2.68,2.61,2.61,0,0,1,2.06.87l-.62.59a1.83,1.83,0,0,0-1.39-.61,1.83,1.83,0,1,0,0,3.65,1.83,1.83,0,0,0,1.39-.61l.62.59a2.61,2.61,0,0,1-2.06.87A2.65,2.65,0,0,1,199.82,222.06Z" style="fill:#263238"></path><path d="M205,222.67a2.12,2.12,0,1,1,2.11,2A2,2,0,0,1,205,222.67Zm3.29,0a1.18,1.18,0,1,0-1.18,1.24A1.16,1.16,0,0,0,208.32,222.67Z" style="fill:#263238"></path><path d="M214.06,222.38v2.28h-.93V222.5c0-.7-.35-1.05-.94-1.05a1.05,1.05,0,0,0-1.11,1.2v2h-.93v-4H211v.51a1.75,1.75,0,0,1,1.37-.56A1.56,1.56,0,0,1,214.06,222.38Z" style="fill:#263238"></path><path d="M217.63,224.44a1.45,1.45,0,0,1-.89.27,1.22,1.22,0,0,1-1.37-1.34v-1.91h-.66v-.74h.66v-.91h.93v.91h1.06v.74H216.3v1.89c0,.38.19.59.55.59a.85.85,0,0,0,.52-.16Z" style="fill:#263238"></path><path d="M221.72,222.33v2.33h-.88v-.49a1.38,1.38,0,0,1-1.25.54c-.91,0-1.48-.5-1.48-1.19s.45-1.18,1.65-1.18h1v-.06c0-.54-.33-.86-1-.86a1.9,1.9,0,0,0-1.2.39l-.37-.68a2.85,2.85,0,0,1,1.68-.49C221.06,220.64,221.72,221.19,221.72,222.33Zm-.93,1.08V223h-1c-.63,0-.8.24-.8.53s.28.55.75.55A1,1,0,0,0,220.79,223.41Z" style="fill:#263238"></path><path d="M222.62,222.67a2,2,0,0,1,2.15-2,1.79,1.79,0,0,1,1.69.92l-.71.42a1.13,1.13,0,0,0-1-.55,1.24,1.24,0,0,0,0,2.48,1.13,1.13,0,0,0,1-.55l.71.42a1.81,1.81,0,0,1-1.69.93A2,2,0,0,1,222.62,222.67Z" style="fill:#263238"></path><path d="M229.7,224.44a1.45,1.45,0,0,1-.89.27,1.22,1.22,0,0,1-1.37-1.34v-1.91h-.65v-.74h.65v-.91h.93v.91h1.06v.74h-1.06v1.89c0,.38.19.59.55.59a.85.85,0,0,0,.52-.16Z" style="fill:#263238"></path><path d="M238.4,219.45v5.21h-.79l-2.87-3.53v3.53h-1v-5.21h.79l2.87,3.53v-3.53Z" style="fill:#263238"></path><path d="M243.55,220.69v4h-.88v-.51a1.62,1.62,0,0,1-1.28.56,1.57,1.57,0,0,1-1.71-1.76v-2.26h.93v2.14c0,.72.34,1.06.93,1.06s1.08-.4,1.08-1.2v-2Z" style="fill:#263238"></path><path d="M251.41,222.38v2.28h-.93V222.5c0-.7-.33-1.05-.89-1.05s-1,.4-1,1.19v2h-.93V222.5c0-.7-.33-1.05-.89-1.05s-1,.4-1,1.19v2h-.93v-4h.89v.5a1.67,1.67,0,0,1,1.3-.55,1.51,1.51,0,0,1,1.34.66,1.87,1.87,0,0,1,1.48-.66A1.53,1.53,0,0,1,251.41,222.38Z" style="fill:#263238"></path><path d="M256.82,222.67a1.94,1.94,0,0,1-2,2,1.63,1.63,0,0,1-1.31-.57v.52h-.89v-5.52h.93v2a1.65,1.65,0,0,1,1.27-.53A1.93,1.93,0,0,1,256.82,222.67Zm-.95,0a1.18,1.18,0,1,0-1.17,1.24A1.15,1.15,0,0,0,255.87,222.67Z" style="fill:#263238"></path><path d="M261.42,223H258.3a1.21,1.21,0,0,0,1.29.95,1.43,1.43,0,0,0,1.08-.43l.5.57a2.23,2.23,0,0,1-3.79-1.39,2,2,0,0,1,2.05-2,1.93,1.93,0,0,1,2,2.05A2.72,2.72,0,0,1,261.42,223Zm-3.12-.62h2.25a1.14,1.14,0,0,0-2.25,0Z" style="fill:#263238"></path><path d="M264.62,220.64v.89a.82.82,0,0,0-.21,0,1.07,1.07,0,0,0-1.15,1.22v1.93h-.93v-4h.88v.58A1.56,1.56,0,0,1,264.62,220.64Z" style="fill:#263238"></path><path d="M205.82,277.11h-2.6l-.51,1.21h-1l2.34-5.21h1l2.34,5.21h-1Zm-.32-.76-1-2.27-1,2.27Z" style="fill:#263238"></path><path d="M211.78,272.8v5.52h-.89v-.52a1.66,1.66,0,0,1-1.32.57,2,2,0,0,1,0-4.07,1.61,1.61,0,0,1,1.28.54v-2Zm-.92,3.53a1.18,1.18,0,1,0-1.18,1.24A1.16,1.16,0,0,0,210.86,276.33Z" style="fill:#263238"></path><path d="M216.89,272.8v5.52H216v-.52a1.63,1.63,0,0,1-1.31.57,2,2,0,0,1,0-4.07,1.63,1.63,0,0,1,1.28.54v-2Zm-.92,3.53a1.18,1.18,0,1,0-1.18,1.24A1.16,1.16,0,0,0,216,276.33Z" style="fill:#263238"></path><path d="M220.4,274.3v.89a.82.82,0,0,0-.21,0,1.08,1.08,0,0,0-1.16,1.22v1.93h-.92v-4H219v.58A1.56,1.56,0,0,1,220.4,274.3Z" style="fill:#263238"></path><path d="M224.87,276.63h-3.11a1.19,1.19,0,0,0,1.28.95,1.42,1.42,0,0,0,1.08-.43l.5.57a2,2,0,0,1-1.6.65,2,2,0,0,1-2.19-2,2,2,0,0,1,2-2,1.93,1.93,0,0,1,2,2.05A2.72,2.72,0,0,1,224.87,276.63Zm-3.12-.62H224a1.07,1.07,0,0,0-1.12-1A1.09,1.09,0,0,0,221.75,276Z" style="fill:#263238"></path><path d="M225.33,277.92l.35-.7a2.69,2.69,0,0,0,1.38.39c.59,0,.84-.16.84-.44,0-.76-2.46,0-2.46-1.63,0-.75.68-1.24,1.75-1.24a3.24,3.24,0,0,1,1.49.34l-.36.71a2.21,2.21,0,0,0-1.14-.3c-.56,0-.83.19-.83.45,0,.8,2.45.09,2.45,1.64,0,.75-.68,1.23-1.8,1.23A3.13,3.13,0,0,1,225.33,277.92Z" style="fill:#263238"></path><path d="M229.15,277.92l.36-.7a2.66,2.66,0,0,0,1.38.39c.59,0,.83-.16.83-.44,0-.76-2.45,0-2.45-1.63,0-.75.68-1.24,1.75-1.24a3.24,3.24,0,0,1,1.49.34l-.36.71a2.21,2.21,0,0,0-1.14-.3c-.56,0-.83.19-.83.45,0,.8,2.45.09,2.45,1.64,0,.75-.68,1.23-1.8,1.23A3.19,3.19,0,0,1,229.15,277.92Z" style="fill:#263238"></path><path d="M209.11,355.82l2.16,1.22-.56,1-2.2-1.3v2.48h-1.09l0-2.48-2.2,1.3-.57-1,2.19-1.22-2.19-1.21.57-1,2.2,1.29,0-2.46h1.09v2.46l2.2-1.29.56,1Z" style="fill:#e0e0e0"></path><path d="M216.75,355.82l2.17,1.22-.57,1-2.2-1.3,0,2.48h-1.1l0-2.48-2.2,1.3-.56-1,2.18-1.22-2.18-1.21.56-1,2.2,1.29,0-2.46h1.1l0,2.46,2.2-1.29.57,1Z" style="fill:#e0e0e0"></path><path d="M224.39,355.82l2.17,1.22-.57,1-2.2-1.3,0,2.48h-1.09v-2.48l-2.2,1.3-.56-1,2.18-1.22L220,354.61l.56-1,2.2,1.29v-2.46h1.09l0,2.46,2.2-1.29.57,1Z" style="fill:#e0e0e0"></path><path d="M232,355.82,234.2,357l-.56,1-2.21-1.3,0,2.48h-1.09l0-2.48-2.2,1.3-.57-1,2.19-1.22-2.19-1.21.57-1,2.2,1.29,0-2.46h1.09l0,2.46,2.21-1.29.56,1Z" style="fill:#e0e0e0"></path><path d="M239.68,355.82l2.16,1.22-.56,1-2.2-1.3v2.48H238l0-2.48-2.2,1.3-.57-1,2.19-1.22-2.19-1.21.57-1,2.2,1.29,0-2.46h1.09v2.46l2.2-1.29.56,1Z" style="fill:#e0e0e0"></path><path d="M247.32,355.82l2.17,1.22-.57,1-2.2-1.3,0,2.48h-1.09v-2.48l-2.2,1.3-.56-1,2.18-1.22-2.18-1.21.56-1,2.2,1.29v-2.46h1.09l0,2.46,2.2-1.29.57,1Z" style="fill:#e0e0e0"></path><path d="M255,355.82l2.17,1.22-.56,1-2.21-1.3,0,2.48h-1.09l0-2.48L251.1,358l-.56-1,2.18-1.22-2.18-1.21.56-1,2.21,1.29,0-2.46h1.09l0,2.46,2.21-1.29.56,1Z" style="fill:#e0e0e0"></path><path d="M370.73,280l.33-.75a2.93,2.93,0,0,0,1.72.57c.81,0,1.15-.29,1.15-.67,0-1.13-3.09-.39-3.09-2.32,0-.84.67-1.56,2.09-1.56a3.39,3.39,0,0,1,1.74.46l-.31.76a2.84,2.84,0,0,0-1.43-.41c-.81,0-1.13.31-1.13.7,0,1.11,3.08.39,3.08,2.3,0,.83-.68,1.54-2.1,1.54A3.36,3.36,0,0,1,370.73,280Z" style="fill:#263238"></path><path d="M378.14,280.37a1.45,1.45,0,0,1-.89.27,1.22,1.22,0,0,1-1.37-1.33v-1.92h-.66v-.74h.66v-.9h.93v.9h1.06v.74h-1.06v1.89c0,.39.19.6.55.6a.85.85,0,0,0,.52-.17Z" style="fill:#263238"></path><path d="M382.23,278.26v2.33h-.88v-.48a1.4,1.4,0,0,1-1.25.53c-.91,0-1.48-.5-1.48-1.19s.45-1.18,1.65-1.18h1v-.06c0-.54-.33-.86-1-.86a2,2,0,0,0-1.2.39l-.37-.67a2.76,2.76,0,0,1,1.68-.49C381.56,276.58,382.23,277.12,382.23,278.26Zm-.93,1.09v-.46h-1c-.63,0-.8.24-.8.53s.28.55.75.55A1,1,0,0,0,381.3,279.35Z" style="fill:#263238"></path><path d="M385.8,280.37a1.45,1.45,0,0,1-.89.27,1.22,1.22,0,0,1-1.37-1.33v-1.92h-.65v-.74h.65v-.9h.93v.9h1.06v.74h-1.06v1.89c0,.39.2.6.55.6a.83.83,0,0,0,.52-.17Z" style="fill:#263238"></path><path d="M390.15,278.9H387a1.19,1.19,0,0,0,1.28,1,1.42,1.42,0,0,0,1.08-.43l.5.58a2,2,0,0,1-1.6.64,2,2,0,0,1-2.19-2,2,2,0,0,1,2.05-2,1.94,1.94,0,0,1,2,2.05C390.17,278.7,390.16,278.81,390.15,278.9Zm-3.12-.61h2.25a1.07,1.07,0,0,0-1.12-1A1.1,1.1,0,0,0,387,278.29Z" style="fill:#263238"></path><path d="M204.54,331.8c0,1.14-.84,1.85-2.21,1.85h-1.18v1.5h-1V330h2.14C203.7,330,204.54,330.65,204.54,331.8Zm-1,0c0-.65-.44-1-1.29-1h-1.13v2.06h1.13C203.13,332.83,203.57,332.45,203.57,331.8Z" style="fill:#263238"></path><path d="M208.71,332.83v2.32h-.88v-.48a1.4,1.4,0,0,1-1.25.53c-.91,0-1.48-.49-1.48-1.19s.45-1.18,1.65-1.18h1v-.06c0-.54-.33-.86-1-.86a1.9,1.9,0,0,0-1.2.4l-.37-.68a2.78,2.78,0,0,1,1.68-.49C208.05,331.14,208.71,331.68,208.71,332.83Zm-.93,1.08v-.46h-1c-.63,0-.8.24-.8.53s.28.55.75.55A1,1,0,0,0,207.78,333.91Z" style="fill:#263238"></path><path d="M209.44,334.76l.36-.71a2.69,2.69,0,0,0,1.38.4c.59,0,.84-.17.84-.44,0-.76-2.46-.05-2.46-1.63,0-.75.68-1.24,1.75-1.24a3.12,3.12,0,0,1,1.49.34l-.36.71a2.12,2.12,0,0,0-1.14-.3c-.56,0-.83.19-.83.45,0,.8,2.45.08,2.45,1.64,0,.74-.68,1.22-1.8,1.22A3.19,3.19,0,0,1,209.44,334.76Z" style="fill:#263238"></path><path d="M213.27,334.76l.36-.71a2.66,2.66,0,0,0,1.38.4c.59,0,.83-.17.83-.44,0-.76-2.45-.05-2.45-1.63,0-.75.68-1.24,1.75-1.24a3.05,3.05,0,0,1,1.48.34l-.35.71a2.12,2.12,0,0,0-1.14-.3c-.56,0-.83.19-.83.45,0,.8,2.45.08,2.45,1.64,0,.74-.68,1.22-1.8,1.22A3.19,3.19,0,0,1,213.27,334.76Z" style="fill:#263238"></path><path d="M223.67,331.18l-1.46,4h-.89l-1-2.73-1,2.73h-.89l-1.46-4h.88l1.05,2.93,1.09-2.93h.78l1.07,2.95,1.08-2.95Z" style="fill:#263238"></path><path d="M223.87,333.17a2.12,2.12,0,1,1,2.11,2A2,2,0,0,1,223.87,333.17Zm3.3,0a1.18,1.18,0,1,0-1.19,1.24A1.16,1.16,0,0,0,227.17,333.17Z" style="fill:#263238"></path><path d="M231.29,331.14V332l-.21,0a1.08,1.08,0,0,0-1.15,1.23v1.92H229v-4h.88v.58A1.57,1.57,0,0,1,231.29,331.14Z" style="fill:#263238"></path><path d="M235.93,329.64v5.51H235v-.51a1.63,1.63,0,0,1-1.32.56,2,2,0,0,1,0-4.06,1.63,1.63,0,0,1,1.28.53v-2Zm-.91,3.53a1.19,1.19,0,1,0-1.18,1.24A1.16,1.16,0,0,0,235,333.17Z" style="fill:#263238"></path><path d="M503.68,369.17a9,9,0,0,0,1.56-.29,5.41,5.41,0,0,0,3.28-2.92,6.65,6.65,0,0,0,.46-3.2c0-1.22,0-2.54,0-3.95,0-2.84,0-6.06,0-9.62a7.63,7.63,0,0,0-.27-2.65,5.22,5.22,0,0,0-1.52-2.26,5.12,5.12,0,0,0-2.54-1.22,23.47,23.47,0,0,0-3-.08l-13.38,0-30.67,0a5.16,5.16,0,0,0-5.15,4.72c0,2.6,0,5.24,0,7.8v7.55a5.54,5.54,0,0,0,.78,3.37,5.09,5.09,0,0,0,2.59,2.13,9,9,0,0,0,3.37.33h9.89l11.66,0,16.89.08,4.59.05,1.19,0,.41,0-.41,0-1.19,0-4.59,0-16.89.08-11.66,0h-9.89c-.58,0-1.15,0-1.74,0a5.47,5.47,0,0,1-1.79-.35,5.69,5.69,0,0,1-2.85-2.32,6.1,6.1,0,0,1-.86-3.63q0-3.71,0-7.55c0-2.58,0-5.16,0-7.85a5.74,5.74,0,0,1,1.81-3.68,5.67,5.67,0,0,1,3.86-1.51l30.67,0,13.38,0a25.08,25.08,0,0,1,3.12.1,5.64,5.64,0,0,1,4.35,3.77,7.81,7.81,0,0,1,.28,2.77c0,3.56,0,6.78,0,9.62,0,1.41,0,2.73,0,3.95a6.78,6.78,0,0,1-.53,3.28,5.43,5.43,0,0,1-3.43,2.94A4.47,4.47,0,0,1,503.68,369.17Z" style="fill:#22C55E"></path><path d="M462.65,356.35a2.8,2.8,0,0,1,3-2.83,2.84,2.84,0,0,1,2.25,1l-.81.75a1.77,1.77,0,0,0-1.38-.64,1.75,1.75,0,0,0,0,3.49,1.74,1.74,0,0,0,1.38-.64l.81.75a3,3,0,0,1-5.21-1.85Z" style="fill:#22C55E"></path><path d="M468.16,357a2.31,2.31,0,1,1,2.31,2.16A2.17,2.17,0,0,1,468.16,357Zm3.38,0a1.08,1.08,0,1,0-2.15,0,1.08,1.08,0,1,0,2.15,0Z" style="fill:#22C55E"></path><path d="M477.87,356.68v2.4h-1.22v-2.22c0-.68-.31-1-.85-1s-1,.36-1,1.13v2.08h-1.21v-4.2h1.16v.49a1.84,1.84,0,0,1,1.39-.55A1.65,1.65,0,0,1,477.87,356.68Z" style="fill:#22C55E"></path><path d="M481.67,358.87a1.74,1.74,0,0,1-1,.27,1.39,1.39,0,0,1-1.57-1.51v-1.72h-.64V355h.64v-1h1.22v1h1v.94h-1v1.71a.48.48,0,0,0,.52.55.81.81,0,0,0,.49-.15Z" style="fill:#22C55E"></path><path d="M482.21,353.62a.69.69,0,0,1,.75-.68.68.68,0,0,1,.76.66.76.76,0,0,1-1.51,0Zm.15,1.26h1.21v4.2h-1.21Z" style="fill:#22C55E"></path><path d="M489,356.68v2.4h-1.22v-2.22c0-.68-.31-1-.85-1s-1,.36-1,1.13v2.08H484.7v-4.2h1.16v.49a1.84,1.84,0,0,1,1.39-.55A1.65,1.65,0,0,1,489,356.68Z" style="fill:#22C55E"></path><path d="M494.31,354.88v4.2h-1.15v-.5a1.72,1.72,0,0,1-1.3.56,1.67,1.67,0,0,1-1.79-1.89v-2.37h1.21v2.19c0,.7.31,1,.85,1s1-.36,1-1.13v-2.08Z" style="fill:#22C55E"></path><path d="M499.53,357.32h-3.17a1.11,1.11,0,0,0,1.2.84,1.43,1.43,0,0,0,1.05-.4l.65.7a2.22,2.22,0,0,1-1.73.68,2.18,2.18,0,0,1-2.4-2.16,2.13,2.13,0,0,1,2.24-2.16,2.08,2.08,0,0,1,2.18,2.17C499.55,357.09,499.54,357.22,499.53,357.32Zm-3.19-.71h2.07a1,1,0,0,0-1-.87A1,1,0,0,0,496.34,356.61Z" style="fill:#22C55E"></path><rect x="384.89" y="342.77" width="57.05" height="26.4" rx="5.43" style="fill:#22C55E"></rect><path d="M404.13,358.54l.43-1a3.24,3.24,0,0,0,1.8.57c.75,0,1.05-.25,1.05-.59,0-1-3.17-.32-3.17-2.35,0-.92.75-1.7,2.3-1.7a3.64,3.64,0,0,1,1.89.49l-.39,1a3,3,0,0,0-1.51-.43c-.75,0-1,.28-1,.62,0,1,3.18.31,3.18,2.32,0,.91-.76,1.69-2.32,1.69A3.9,3.9,0,0,1,404.13,358.54Z" style="fill:#fff"></path><path d="M413.16,356.68v2.4H412v-.53a1.37,1.37,0,0,1-1.28.59c-1,0-1.57-.55-1.57-1.27s.52-1.26,1.8-1.26h1c0-.52-.31-.82-1-.82a2,2,0,0,0-1.21.39l-.43-.85a3.21,3.21,0,0,1,1.81-.51C412.42,354.82,413.16,355.41,413.16,356.68Zm-1.22,1.07v-.43h-.83c-.57,0-.75.21-.75.49s.25.51.68.51A.9.9,0,0,0,411.94,357.75Z" style="fill:#fff"></path><path d="M418.34,354.88l-1.77,4.2h-1.25l-1.77-4.2h1.26l1.16,2.86,1.2-2.86Z" style="fill:#fff"></path><path d="M422.81,357.32h-3.18a1.12,1.12,0,0,0,1.2.84,1.44,1.44,0,0,0,1.06-.4l.64.7a2.21,2.21,0,0,1-1.73.68,2.17,2.17,0,0,1-2.39-2.16,2.13,2.13,0,0,1,2.24-2.16,2.08,2.08,0,0,1,2.18,2.17C422.83,357.09,422.81,357.22,422.81,357.32Zm-3.19-.71h2.06a1,1,0,0,0-2.06,0Z" style="fill:#fff"></path><path d="M209.84,248.16V250h-.73v-1.82L207,244.76h.8l1.66,2.74,1.67-2.74h.74Z" style="fill:#e0e0e0"></path><path d="M211.75,248a2,2,0,1,1,2.05,2A2,2,0,0,1,211.75,248Zm3.37,0a1.33,1.33,0,1,0-2.65,0,1.33,1.33,0,1,0,2.65,0Z" style="fill:#e0e0e0"></path><path d="M220.5,246V250h-.67v-.6a1.6,1.6,0,0,1-1.34.64,1.54,1.54,0,0,1-1.69-1.71V246h.71v2.18c0,.78.39,1.16,1.06,1.16a1.15,1.15,0,0,0,1.22-1.3v-2Z" style="fill:#e0e0e0"></path><path d="M224,246v.69h-.16a1.17,1.17,0,0,0-1.24,1.33v2h-.71V246h.68v.66A1.5,1.5,0,0,1,224,246Z" style="fill:#e0e0e0"></path><path d="M231.49,244.76V250h-.61l-3.12-3.88V250H227v-5.2h.61l3.12,3.88v-3.88Z" style="fill:#e0e0e0"></path><path d="M236.62,246V250H236v-.6a1.6,1.6,0,0,1-1.34.64,1.55,1.55,0,0,1-1.7-1.71V246h.72v2.18c0,.78.38,1.16,1.06,1.16a1.16,1.16,0,0,0,1.22-1.3v-2Z" style="fill:#e0e0e0"></path><path d="M244.52,247.69V250h-.71v-2.19c0-.77-.37-1.15-1-1.15a1.15,1.15,0,0,0-1.18,1.31v2h-.71v-2.19c0-.77-.37-1.15-1-1.15a1.15,1.15,0,0,0-1.18,1.31v2H238V246h.69v.59A1.59,1.59,0,0,1,240,246a1.45,1.45,0,0,1,1.36.73,1.8,1.8,0,0,1,1.52-.73A1.51,1.51,0,0,1,244.52,247.69Z" style="fill:#e0e0e0"></path><path d="M249.92,248a1.92,1.92,0,0,1-2,2,1.63,1.63,0,0,1-1.4-.67V250h-.69v-5.51h.72v2.17a1.64,1.64,0,0,1,1.37-.64A1.92,1.92,0,0,1,249.92,248Zm-.72,0a1.33,1.33,0,1,0-1.33,1.39A1.29,1.29,0,0,0,249.2,248Z" style="fill:#e0e0e0"></path><path d="M254.46,248.23h-3.2a1.34,1.34,0,0,0,1.43,1.15,1.48,1.48,0,0,0,1.14-.48l.39.46a2.15,2.15,0,0,1-3.67-1.37,1.93,1.93,0,0,1,2-2,1.9,1.9,0,0,1,1.95,2C254.47,248.07,254.46,248.16,254.46,248.23Zm-3.2-.52h2.53a1.27,1.27,0,0,0-2.53,0Z" style="fill:#e0e0e0"></path><path d="M257.58,246v.69h-.16a1.17,1.17,0,0,0-1.24,1.33v2h-.72V246h.69v.66A1.5,1.5,0,0,1,257.58,246Z" style="fill:#e0e0e0"></path><rect x="164.97" y="71.85" width="407.96" height="24.97" style="fill:#22C55E"></rect><path d="M189.31,83.12v1.65h2.89v1.16h-2.89v2.28h-1.44V82h4.72v1.16Z" style="fill:#fff"></path><path d="M193.11,85.08a3.43,3.43,0,1,1,3.42,3.23A3.23,3.23,0,0,1,193.11,85.08Zm5.37,0a2,2,0,1,0-1.95,2A1.9,1.9,0,0,0,198.48,85.08Z" style="fill:#fff"></path><path d="M205,88.21l-1.2-1.74h-1.33v1.74H201V82h2.71c1.67,0,2.71.86,2.71,2.26a2,2,0,0,1-1.28,2l1.4,2Zm-1.35-5.07h-1.18v2.17h1.18c.88,0,1.33-.41,1.33-1.09S204.54,83.14,203.66,83.14Z" style="fill:#fff"></path><path d="M213.28,88.21V84.46l-1.84,3.09h-.65l-1.83-3v3.67h-1.36V82h1.2l2.34,3.88,2.3-3.88h1.19v6.25Z" style="fill:#fff"></path><path d="M572.81,72.49l-407.55,0,.24-.24c-.05,95.09-.09,203.72-.15,318.58v0l-.26-.27,407.56.26-.22.22c.23-192.32.38-316.82.38-318.61,0,1.79,0,126.29.05,318.61v.22h-.21l-407.56-.17h-.26v-.3c.07-114.86.14-223.49.2-318.58V72h.23Z" style="fill:#263238"></path></g><g id="freepik--Plant--inject-197"><rect x="94.04" y="416.5" width="73.5" height="10.1" style="fill:#263238"></rect><path d="M167.67,426.72H93.91V416.37h73.76Zm-73.51-.25h73.25v-9.85H94.16Z" style="fill:#263238"></path><polygon points="100.85 423.23 111.43 475.43 150.58 475.43 160.81 426.6 100.85 423.23" style="fill:#263238"></polygon><polygon points="100.85 470.49 106.5 478.25 154.08 478.25 160.81 470.49 100.85 470.49" style="fill:#455a64"></polygon><path d="M128,424.76c-.15,0-.33-24.18-.42-54s0-54,.11-54,.33,24.18.42,54S128.17,424.76,128,424.76Z" style="fill:#263238"></path><path d="M144.4,364.24a2.12,2.12,0,0,1-.2.57c-.17.41-.38.93-.65,1.56l-.48,1.13-.49,1.37-.57,1.58c-.19.55-.35,1.16-.54,1.79a74.79,74.79,0,0,0-2.06,9,110.44,110.44,0,0,0-1.13,11.26,150.38,150.38,0,0,0,.58,20.55c.23,2.63.47,4.75.65,6.21.07.69.13,1.25.18,1.69a2.28,2.28,0,0,1,0,.6,2.65,2.65,0,0,1-.13-.58c-.08-.44-.17-1-.29-1.68-.23-1.46-.53-3.57-.81-6.2a135.18,135.18,0,0,1-.74-20.62,102.91,102.91,0,0,1,1.19-11.31,66.7,66.7,0,0,1,2.18-9c.2-.63.37-1.23.58-1.79s.41-1.08.61-1.57l.53-1.37c.18-.41.36-.78.52-1.11.31-.62.55-1.13.75-1.53A4.09,4.09,0,0,1,144.4,364.24Z" style="fill:#263238"></path><path d="M142.52,344.69a4.29,4.29,0,0,1-.23.79l-.77,2.25c-.17.49-.35,1-.56,1.62s-.38,1.26-.59,2c-.43,1.4-.93,3-1.37,4.77-.24.9-.48,1.83-.74,2.8l-.69,3.06c-.51,2.1-.88,4.39-1.35,6.78-.81,4.8-1.53,10.11-2,15.71s-.67,11-.74,15.83,0,9.26.25,12.95c.06,1.84.18,3.5.28,5s.17,2.72.27,3.75.13,1.78.18,2.37a4.74,4.74,0,0,1,0,.83,6.91,6.91,0,0,1-.13-.82c-.07-.59-.16-1.37-.28-2.36s-.24-2.28-.36-3.75-.26-3.12-.35-5c-.25-3.68-.35-8.08-.36-13s.23-10.26.7-15.88,1.22-10.94,2.06-15.75c.49-2.39.88-4.68,1.41-6.79.25-1,.49-2.08.72-3.06s.53-1.9.77-2.79c.47-1.79,1-3.38,1.45-4.77l.64-2c.22-.58.42-1.12.6-1.61.36-.92.65-1.66.86-2.21A5.24,5.24,0,0,1,142.52,344.69Z" style="fill:#263238"></path><path d="M123.38,429a1.36,1.36,0,0,1,0-.29c0-.21,0-.49-.07-.83,0-.77-.13-1.84-.22-3.2-.17-2.82-.43-6.84-.73-11.78-.64-9.94-1.57-23.68-3.24-38.79-.85-7.55-1.85-14.72-2.88-21.23-.54-3.24-1-6.33-1.6-9.21s-1.08-5.55-1.59-8-1-4.63-1.46-6.56-.83-3.58-1.18-4.93-.58-2.37-.76-3.12c-.08-.33-.14-.6-.19-.81a.9.9,0,0,1,0-.29,2.16,2.16,0,0,1,.09.27c.07.21.14.48.24.8.21.75.49,1.78.86,3.1s.81,3,1.27,4.91,1,4.11,1.53,6.56,1.12,5.1,1.65,8,1.1,6,1.66,9.21c1.06,6.51,2.07,13.69,2.92,21.25,1.68,15.13,2.54,28.88,3.08,38.83.28,5,.46,9,.58,11.79,0,1.36.09,2.43.11,3.21,0,.34,0,.61,0,.83A1.29,1.29,0,0,1,123.38,429Z" style="fill:#263238"></path><path d="M127.43,328.37c-.32-3.43-3.78-6-7.22-6.05s-6.65,2-8.75,4.75a27.36,27.36,0,0,0-4.22,9.36c-2.31,8.07-3.58,16.55-2.59,24.88S109,377.86,115,383.75c1,1,2.23,1.92,3.56,1.63a4.31,4.31,0,0,0,1.89-1.16,55.69,55.69,0,0,0,18.07-42.35c-.09-3.17-.51-6.47-2.26-9.11s-5.85-5.45-8.84-4.39" style="fill:#22C55E"></path><path d="M101.74,300.93l-4.85,8.78c-.11.2-.26.43-.49.45s-.45-.22-.59-.43L83,290.06l3-1.67Z" style="fill:#22C55E"></path><g style="opacity:0.2"><path d="M101.74,300.93l-4.85,8.78c-.11.2-.26.43-.49.45s-.45-.22-.59-.43L83,290.06l3-1.67Z"></path></g><path d="M127.72,316.74,84,291c-.44-.27-.93-.58-1.06-1.08s.31-1.27.78-1.75A30.11,30.11,0,0,1,107.09,279a26.66,26.66,0,0,1,21.11,13.13c4.22,7.53,4.36,17.5-.48,24.65" style="fill:#22C55E"></path><path d="M90.32,282.73a2.06,2.06,0,0,1,.57-.08c.38,0,.94-.08,1.66-.08a32.79,32.79,0,0,1,6.06.49,35.09,35.09,0,0,1,8.63,2.62,35.52,35.52,0,0,1,19.66,23,33.26,33.26,0,0,1,1.08,6,12.43,12.43,0,0,1,.07,1.27,2.18,2.18,0,0,1-.34.95,7.56,7.56,0,0,0,.07-2.2,37.67,37.67,0,0,0-1.24-5.91,35.71,35.71,0,0,0-28-25.33,38,38,0,0,0-6-.64C91.12,282.75,90.32,282.77,90.32,282.73Z" style="fill:#263238"></path><path d="M121.81,299a11.51,11.51,0,0,1-2.21,1c-1.39.55-3.34,1.25-5.51,1.94s-4.18,1.24-5.63,1.6a10.54,10.54,0,0,1-2.38.45,12.44,12.44,0,0,1,2.28-.81l5.57-1.74,5.55-1.79A11.27,11.27,0,0,1,121.81,299Z" style="fill:#263238"></path><path d="M114.93,280.46a31.2,31.2,0,0,1,.25,9.77,29.71,29.71,0,0,1-.26-4.88A30.8,30.8,0,0,1,114.93,280.46Z" style="fill:#263238"></path><path d="M83.64,290.47a18.87,18.87,0,0,1,3.18-1.12c2-.61,4.75-1.39,7.83-2.13s5.9-1.31,7.94-1.67a19.4,19.4,0,0,1,3.34-.45,24.59,24.59,0,0,1-3.26.81c-2,.45-4.82,1.08-7.9,1.82s-5.84,1.46-7.85,2A23.72,23.72,0,0,1,83.64,290.47Z" style="fill:#263238"></path><path d="M109.29,320.94c-3.76-2.85-7.73-3.42-12.45-3.23a38,38,0,0,0-13.62,3.52c-7.37,3.22-14.29,8-18.7,14.71s-5.93,15.65-2.63,23a3.24,3.24,0,0,0,1.49,1.81,3.6,3.6,0,0,0,2.47-.19c8.38-2.73,16.82-5.49,24.52-9.77s14.72-10.24,18.86-18a15.48,15.48,0,0,0,2-6,7.41,7.41,0,0,0-1.92-5.84" style="fill:#22C55E"></path><path d="M109.37,320.05a3.57,3.57,0,0,1-.61.25l-1.75.6-1.28.42c-.46.17-1,.38-1.48.58-1.06.43-2.29.86-3.59,1.49l-2,.94c-.72.33-1.43.73-2.18,1.11-1.52.75-3.06,1.7-4.69,2.67a73.82,73.82,0,0,0-18.49,16.27c-1.17,1.5-2.31,2.9-3.25,4.31-.47.7-1,1.35-1.38,2l-1.19,1.92c-.79,1.2-1.37,2.37-1.93,3.37-.28.5-.54,1-.77,1.4s-.4.84-.58,1.2l-.82,1.67a2.93,2.93,0,0,1-.32.57,2.67,2.67,0,0,1,.22-.61l.74-1.71q.24-.57.54-1.23c.21-.45.47-.92.73-1.43.54-1,1.1-2.2,1.87-3.42l1.17-1.95c.41-.67.9-1.34,1.37-2.05.92-1.43,2.06-2.85,3.22-4.37A72.3,72.3,0,0,1,91.48,327.7c1.66-1,3.21-1.91,4.75-2.64.76-.38,1.48-.78,2.2-1.1l2.08-.91c1.32-.61,2.56-1,3.64-1.42.54-.2,1-.39,1.5-.54l1.29-.38,1.79-.51A2.47,2.47,0,0,1,109.37,320.05Z" style="fill:#263238"></path><path d="M80,336a87.67,87.67,0,0,1-9.14,2.95,86.87,86.87,0,0,1-9.29,2.44,87.67,87.67,0,0,1,9.14-2.95A89.84,89.84,0,0,1,80,336Z" style="fill:#263238"></path><path d="M79.63,356.13a14,14,0,0,1-.2-2.85c-.05-1.76-.06-4.2,0-6.89s.22-5.11.37-6.87a14.82,14.82,0,0,1,.36-2.83,16.89,16.89,0,0,1,0,2.85c-.06,1.93-.13,4.28-.21,6.87s-.13,4.94-.17,6.87A17.18,17.18,0,0,1,79.63,356.13Z" style="fill:#263238"></path><path d="M96.91,347.32c-.15,0-.61-4.94-1-11.05s-.65-11.07-.5-11.08.6,4.93,1,11.05S97.05,347.31,96.91,347.32Z" style="fill:#263238"></path><path d="M75.4,324.71a16.66,16.66,0,0,1,2.93-.09c1.8,0,4.3.07,7,.16s5.25.2,7.05.31a15.84,15.84,0,0,1,2.92.28,16.66,16.66,0,0,1-2.93.09c-1.8,0-4.3-.07-7.06-.16s-5.25-.2-7-.31A16.79,16.79,0,0,1,75.4,324.71Z" style="fill:#263238"></path><path d="M116.88,384.9a2.23,2.23,0,0,1-.06-.58c0-.44,0-1-.08-1.68-.07-1.46-.08-3.58,0-6.19s.22-5.73.54-9.17.83-7.21,1.53-11.14,1.6-7.64,2.49-11,1.85-6.32,2.73-8.79,1.63-4.45,2.2-5.8l.67-1.55a4.58,4.58,0,0,1,.26-.53,2.39,2.39,0,0,1-.16.57c-.15.41-.34.94-.58,1.58-.51,1.37-1.22,3.37-2,5.84s-1.72,5.46-2.61,8.8-1.72,7-2.44,11-1.21,7.67-1.57,11.1-.56,6.52-.65,9.13-.15,4.72-.15,6.17c0,.69,0,1.25,0,1.69A2.39,2.39,0,0,1,116.88,384.9Z" style="fill:#263238"></path><path d="M119.19,356.29a12.69,12.69,0,0,1-1.75,1.91c-1.13,1.13-2.73,2.64-4.57,4.25s-3.54,3-4.8,4a11.61,11.61,0,0,1-2.13,1.48,13.06,13.06,0,0,1,1.89-1.76l4.7-4.08,4.66-4.13A13.22,13.22,0,0,1,119.19,356.29Z" style="fill:#263238"></path><path d="M133,367.43a20.22,20.22,0,0,1-1.86-2.57l-4.32-6.3-4.41-6.24a20.31,20.31,0,0,1-1.76-2.64,18.86,18.86,0,0,1,2.06,2.42c1.21,1.54,2.83,3.71,4.54,6.16s3.18,4.73,4.2,6.4A18.67,18.67,0,0,1,133,367.43Z" style="fill:#263238"></path><path d="M125.77,332.39c.08.12-4.51,3.22-10.26,6.91S105,345.89,105,345.77s4.52-3.22,10.27-6.91S125.69,332.27,125.77,332.39Z" style="fill:#263238"></path><path d="M138.73,346.37a84.72,84.72,0,0,1-6.95-6.42,84.42,84.42,0,0,1-6.59-6.8,86.32,86.32,0,0,1,6.95,6.43A87.42,87.42,0,0,1,138.73,346.37Z" style="fill:#263238"></path><path d="M142,346.09l3.94-.32a19.49,19.49,0,0,0,8-2.44,32.2,32.2,0,0,1,3.71-1.87c4.88-1.95,10.32-1.6,15.57-1.87a64.39,64.39,0,0,0,24.76-6.33,2.38,2.38,0,0,0,1.08-1c.81-1.47-.7-2.79-2-3.59-6.65-4.09-13.41-8.24-20.95-10.27s-16.09-1.69-22.52,2.74C146,326.35,143.26,337,142,346.09" style="fill:#22C55E"></path><path d="M199.11,331.8a4.3,4.3,0,0,1-.67-.31l-1.87-1c-1.62-.86-4-2.11-6.91-3.53A64.38,64.38,0,0,0,179,322.86a35.32,35.32,0,0,0-13.85-1.12,23.75,23.75,0,0,0-12.63,5.42,28.18,28.18,0,0,0-6.58,9.24c-1.38,3-2.24,5.47-2.86,7.19-.29.83-.52,1.49-.7,2a3,3,0,0,1-.28.68,6,6,0,0,1,.18-.71c.15-.51.36-1.18.61-2a63.36,63.36,0,0,1,2.72-7.29,27.88,27.88,0,0,1,6.59-9.44,24,24,0,0,1,12.88-5.58,35.32,35.32,0,0,1,14,1.18,61.8,61.8,0,0,1,10.72,4.25c2.94,1.46,5.25,2.77,6.85,3.68l1.82,1.06A4.18,4.18,0,0,1,199.11,331.8Z" style="fill:#263238"></path><path d="M189.63,336.89c-.08.12-5.24-3.22-11.52-7.46s-11.31-7.76-11.23-7.88,5.24,3.21,11.52,7.45S189.71,336.77,189.63,336.89Z" style="fill:#263238"></path><path d="M184.13,321.27a12.15,12.15,0,0,1-3.76.68,12.48,12.48,0,0,1-3.83-.05,26.12,26.12,0,0,1,3.79-.39A25.22,25.22,0,0,1,184.13,321.27Z" style="fill:#263238"></path><path d="M161.55,318.33a10.21,10.21,0,0,1-1.7,2.64,10.74,10.74,0,0,1-2.14,2.44,10,10,0,0,1,1.69-2.64A10.91,10.91,0,0,1,161.55,318.33Z" style="fill:#263238"></path><path d="M166.17,339.93a14.91,14.91,0,0,1-2.48-1.35c-1.49-.9-3.51-2.23-5.66-3.79s-4.05-3-5.41-4.12a15.13,15.13,0,0,1-2.14-1.84,14.69,14.69,0,0,1,2.36,1.54l5.5,4c2.14,1.56,4.11,2.93,5.55,3.91A16.2,16.2,0,0,1,166.17,339.93Z" style="fill:#263238"></path><path d="M147.79,362.85c-3.76-1-8.24,2.67-9,6.48s.66,7.71,2.33,11.23c3.71,7.77,8.82,15,15.56,20.35s15.17,8.81,23.79,8.76c-1.59-7.39.42-15.1-.47-22.61a29.4,29.4,0,0,0-26-25.79c-2.4-.26-5.18-.64-6.14,1.58" style="fill:#22C55E"></path><path d="M180.45,409.67a2.32,2.32,0,0,1-.54-.25,8.9,8.9,0,0,1-1.4-.94,14.64,14.64,0,0,1-3.72-5c-.6-1.17-1.27-2.43-1.92-3.83l-2-4.47a43.89,43.89,0,0,0-2.49-4.79,36.44,36.44,0,0,0-3.42-4.65c-2.58-3-5.34-5.65-7.73-8.15a53.1,53.1,0,0,1-5.9-7.07,25.46,25.46,0,0,1-2.88-5.51,15.77,15.77,0,0,1-.51-1.61,3.9,3.9,0,0,1-.12-.58c.05,0,.27.77.82,2.12a28.34,28.34,0,0,0,3,5.37,56.38,56.38,0,0,0,5.94,7c2.41,2.47,5.19,5.08,7.79,8.14a37.07,37.07,0,0,1,3.46,4.73,42.12,42.12,0,0,1,2.49,4.85c.7,1.57,1.36,3.08,2,4.49s1.28,2.67,1.86,3.84a15.12,15.12,0,0,0,3.52,5C179.74,409.27,180.48,409.62,180.45,409.67Z" style="fill:#263238"></path><path d="M161,403.53a11,11,0,0,1,.35-2.53c.29-1.55.78-3.68,1.43-6s1.35-4.39,1.91-5.86a11.1,11.1,0,0,1,1-2.34,14,14,0,0,1-.67,2.46c-.47,1.5-1.11,3.57-1.76,5.88s-1.18,4.41-1.57,5.93A13.1,13.1,0,0,1,161,403.53Z" style="fill:#263238"></path><path d="M179.73,385.4a16.68,16.68,0,0,1-2.65-.61c-1.62-.43-3.86-1-6.35-1.57s-4.76-1-6.4-1.3a16.92,16.92,0,0,1-2.66-.59,12.53,12.53,0,0,1,2.71.22c1.67.22,4,.6,6.47,1.16s4.74,1.21,6.34,1.72A12,12,0,0,1,179.73,385.4Z" style="fill:#263238"></path><path d="M147,390.67a15.32,15.32,0,0,1,.41-2.93c.33-1.8.86-4.27,1.56-7s1.45-5.11,2-6.84a15.14,15.14,0,0,1,1.08-2.75,18.4,18.4,0,0,1-.73,2.86c-.49,1.76-1.18,4.18-1.88,6.87s-1.29,5.13-1.71,6.9A18.12,18.12,0,0,1,147,390.67Z" style="fill:#263238"></path><path d="M171.1,369.59a103,103,0,0,1-10.49-.84c-5.77-.62-10.45-1.23-10.43-1.37a101.53,101.53,0,0,1,10.49.85C166.45,368.84,171.12,369.45,171.1,369.59Z" style="fill:#263238"></path><path d="M167.66,426.55c0,.15-16.51.26-36.87.26s-36.88-.11-36.88-.26,16.51-.26,36.88-.26S167.66,426.41,167.66,426.55Z" style="fill:#455a64"></path><path d="M156.18,447.8c0,.14-11.13.26-24.85.26s-24.84-.12-24.84-.26,11.12-.26,24.84-.26S156.18,447.65,156.18,447.8Z" style="fill:#455a64"></path><path d="M155.74,450.84c0,.14-10.93.26-24.41.26s-24.41-.12-24.41-.26,10.93-.26,24.41-.26S155.74,450.69,155.74,450.84Z" style="fill:#455a64"></path><path d="M156.61,445.3c0,.14-11.51.26-25.7.26s-25.7-.12-25.7-.26,11.51-.27,25.7-.27S156.61,445.15,156.61,445.3Z" style="fill:#455a64"></path></g></svg>